<svg width="1440" height="386" viewBox="0 0 1440 386" fill="none" xmlns="http://www.w3.org/2000/svg">
<rect width="1440" height="386" fill="#F5E4FD"/>
<path fill-rule="evenodd" clip-rule="evenodd" d="M1186.12 210.113C1196.52 198.592 1206.66 187.353 1203.37 173.482C1200.14 159.913 1187.05 153.803 1173.63 147.546C1162.51 142.356 1151.17 137.066 1145.06 127.341C1139.82 118.997 1140.66 108.089 1141.5 97.3429C1142.43 85.2552 1143.36 73.3713 1135.58 65.568C1127.5 57.4575 1115.73 58.7941 1103.65 60.1657C1094.55 61.1988 1085.27 62.2518 1077.27 59.3041C1068.18 55.9593 1060.44 48.2534 1052.86 40.7086C1042.16 30.0672 1031.79 19.7459 1018.43 22.4308C1003.61 25.4101 1001.3 38.3714 998.77 52.5841C996.627 64.6012 994.326 77.513 984.169 86.0421C975.433 93.3785 965.554 94.3034 954.854 95.305C943.301 96.3864 930.794 97.5572 917.741 106.986C898.42 120.943 890.609 149.195 891.015 173.482C891.758 217.851 921.528 252.405 962.408 285.325C1003.29 318.246 1039.9 323.888 1082.86 312.865C1135.58 299.339 1146.67 282.814 1169.9 231.933C1173.46 224.129 1179.84 217.069 1186.12 210.113ZM1180.69 116.747C1168.82 116.747 1159.19 109.265 1159.19 100.035C1159.19 90.8045 1168.82 83.3222 1180.69 83.3222C1192.57 83.3222 1202.2 90.8045 1202.2 100.035C1202.2 109.265 1192.57 116.747 1180.69 116.747Z" fill="#7B2CBF" fill-opacity="0.25"/>
<g clip-path="url(#clip0_42_430)">
<path d="M1306 299.664C1306 300.058 1305.21 300.373 1304.23 300.373H927.769C926.788 300.373 926 300.058 926 299.664C926 299.271 926.788 298.955 927.769 298.955H1304.23C1305.21 298.955 1306 299.271 1306 299.664Z" fill="#D6D6E3"/>
<path d="M1092.95 128.366L1075.27 142.498L1069.92 142.886L1067.96 143.029L1034.99 145.443L1000.81 142.945L995.721 142.574L989.238 142.103L975.682 129.147C975.682 129.147 985.278 118.878 993.683 111.948C996.995 109.21 1000.12 106.996 1002.41 106.124L1002.79 105.989C1004.23 105.43 1018.28 103.967 1019.3 102.815C1025.94 95.9793 1019.3 79.681 1019.3 79.681C1019.3 79.681 1048.58 64.5719 1045.04 84.3915C1041.51 104.211 1051.38 101.278 1051.79 101.465L1063.71 101.821L1065.88 102.817L1071.43 105.355L1083.94 111.09C1093.76 115.607 1092.95 128.366 1092.95 128.366Z" fill="#ED9DA0"/>
<path d="M1028.93 90.0121C1043.47 90.0121 1055.27 78.2316 1055.27 63.6996C1055.27 49.1676 1043.47 37.3871 1028.93 37.3871C1014.38 37.3871 1002.59 49.1676 1002.59 63.6996C1002.59 78.2316 1014.38 90.0121 1028.93 90.0121Z" fill="#ED9DA0"/>
<path d="M1041.46 29.609C1047.26 31.6458 1050.58 32.8118 1053.62 35.738C1058.75 40.6815 1059.6 47.2879 1060.39 53.4268C1061.01 58.2289 1061.8 64.4366 1058.98 71.5318C1058.02 73.952 1056.24 81.9873 1047.32 83.3483C1045.57 83.616 1055.42 72.5877 1055.03 60.1186C1054.8 52.3737 1042.95 44.0067 1035.91 42.5029C1034.22 42.1578 1032.47 42.1817 1030.79 42.5728C1029.11 42.9639 1027.54 43.713 1026.17 44.7689C1020.26 49.6194 1020.51 69.6767 1014.27 73.869C1011.71 75.5935 1013.42 63.4552 1011.61 65.4218C1008.04 69.3056 1010.33 75.249 1010.97 77.5179C1014.01 88.2624 1017.2 80.3178 1020.16 89.492C1023.37 99.3975 997.411 107.689 996.454 109.901C994.791 113.749 992.517 129.223 985.993 132.39C977.712 136.41 995.073 132.333 991.223 136.821C989.071 139.329 990.235 141.987 986.348 149.792C985.079 152.34 984.44 153.614 983.882 153.569C981.222 153.355 976.92 132.099 983.882 112.303C986.803 103.996 989.665 95.8578 997.333 89.4915C1001.39 86.1264 1004.79 84.9158 1005.76 80.986C1007.14 75.3705 1001.4 72.9758 1000.25 64.1186C999.461 58.0609 998.908 49.3973 1001.05 43.844C1003.07 38.5996 1004.83 34.0481 1009.42 29.9208C1010.52 28.9304 1019.43 22.1916 1028.87 22.0018C1033.22 21.9145 1036.42 27.8361 1041.46 29.6057V29.609Z" fill="#090814"/>
<path d="M1222.87 297.735L1151.85 297.389L1144.79 280.853L1169.74 279.043L1165.4 260.915L1214.75 254.524L1167.49 238.11L1171.66 237.12L1247.66 249.506L1243.47 277.797L1237.49 293.346L1222.87 297.735Z" fill="#7B2CBF"/>
<path d="M1263.39 284.558C1263.39 284.558 1258.69 290.294 1262.42 298.965L1224.86 315.238L1221.26 315.992L1219.6 308.737L1220.71 299.581V294.577L1263.39 284.558Z" fill="#D5D6DB"/>
<path d="M1144.79 280.852L1196.77 271.385L1265.65 282.347L1222.87 297.735L1144.79 280.852Z" fill="#7B2CBF"/>
<path d="M1144.79 280.85C1144.79 280.85 1139.93 290.052 1145.53 298.551L1222.62 315.238C1222.62 315.238 1217.83 307.908 1222.86 297.735L1144.79 280.85Z" fill="#7B2CBF"/>
<path opacity="0.1" d="M1144.79 280.85C1144.79 280.85 1139.93 290.052 1145.53 298.551L1222.62 315.238C1222.62 315.238 1217.83 307.908 1222.86 297.735L1144.79 280.85Z" fill="black"/>
<path d="M1222.62 315.238L1265.65 296.893C1265.65 296.893 1268.06 297.411 1266.5 299.171C1264.95 300.93 1223.45 316.998 1223.45 316.998L1145.53 298.551L1222.62 315.238Z" fill="#7B2CBF"/>
<path opacity="0.1" d="M1222.62 315.238L1265.65 296.893C1265.65 296.893 1268.06 297.411 1266.5 299.171C1264.95 300.93 1223.45 316.998 1223.45 316.998L1145.53 298.551L1222.62 315.238Z" fill="black"/>
<path opacity="0.1" d="M1239.18 299.503L1220.57 305.707L1220.63 305.904L1239.25 299.699L1239.18 299.503Z" fill="black"/>
<path opacity="0.1" d="M1242.91 298.886L1220.56 307.376L1220.63 307.57L1242.98 299.08L1242.91 298.886Z" fill="black"/>
<path opacity="0.1" d="M1246.33 298.856L1220.69 309.343L1220.76 309.535L1246.41 299.048L1246.33 298.856Z" fill="black"/>
<path opacity="0.1" d="M1250.06 297.958L1220.98 311.078L1221.07 311.267L1250.14 298.147L1250.06 297.958Z" fill="black"/>
<path opacity="0.1" d="M1253.18 297.945L1221.22 311.922L1221.3 312.112L1253.26 298.135L1253.18 297.945Z" fill="black"/>
<path opacity="0.1" d="M1260.03 296.801L1221.7 313.34L1221.78 313.53L1260.11 296.991L1260.03 296.801Z" fill="black"/>
<path d="M1265.65 282.347C1265.65 282.347 1267.54 283.106 1266.43 284.283C1265.32 285.46 1222.86 297.734 1222.86 297.734L1265.65 282.347Z" fill="#7B2CBF"/>
<path d="M1283.99 264.621C1283.99 264.621 1279.29 270.355 1283.03 279.028L1245.47 295.301L1241.87 296.06L1240.21 288.805L1241.33 279.651V274.64L1283.99 264.621Z" fill="#D5D6DB"/>
<path d="M1165.4 260.913L1217.38 251.448L1286.26 262.41L1243.47 277.797L1165.4 260.913Z" fill="#090814"/>
<path d="M1165.39 260.913C1165.39 260.913 1160.52 270.115 1166.13 278.614L1243.21 295.301C1243.21 295.301 1238.43 287.965 1243.47 277.795L1165.39 260.913Z" fill="#3A3768"/>
<path d="M1165.39 260.913C1165.39 260.913 1160.52 270.115 1166.13 278.614L1243.21 295.301C1243.21 295.301 1238.43 287.965 1243.47 277.795L1219.09 272.524L1165.39 260.913Z" fill="#090814"/>
<path d="M1243.22 295.301L1286.26 276.955C1286.26 276.955 1288.66 277.473 1287.11 279.233C1285.55 280.993 1244.05 297.06 1244.05 297.06L1166.13 278.613L1243.22 295.301Z" fill="#3A3768"/>
<path d="M1243.22 295.301L1286.26 276.955C1286.26 276.955 1288.66 277.473 1287.11 279.233C1285.55 280.993 1244.05 297.06 1244.05 297.06L1166.13 278.613L1243.22 295.301Z" fill="#090814"/>
<path opacity="0.1" d="M1239.69 279.65C1239.69 279.65 1235.54 284.625 1239.69 292.088V279.65Z" fill="black"/>
<path opacity="0.1" d="M1259.79 279.568L1241.17 285.772L1241.24 285.969L1259.85 279.765L1259.79 279.568Z" fill="black"/>
<path opacity="0.1" d="M1263.52 278.95L1241.17 287.44L1241.24 287.634L1263.59 279.144L1263.52 278.95Z" fill="black"/>
<path opacity="0.1" d="M1266.94 278.916L1241.29 289.404L1241.37 289.596L1267.02 279.108L1266.94 278.916Z" fill="black"/>
<path opacity="0.1" d="M1270.66 278.019L1241.59 291.139L1241.68 291.328L1270.75 278.208L1270.66 278.019Z" fill="black"/>
<path opacity="0.1" d="M1273.78 278.003L1241.82 291.981L1241.9 292.171L1273.86 278.193L1273.78 278.003Z" fill="black"/>
<path opacity="0.1" d="M1280.63 276.86L1242.3 293.399L1242.39 293.589L1280.72 277.05L1280.63 276.86Z" fill="black"/>
<path d="M1286.26 262.41C1286.26 262.41 1288.14 263.169 1287.04 264.344C1285.93 265.519 1243.48 277.795 1243.48 277.795L1286.26 262.41Z" fill="#3A3768"/>
<path d="M1285.94 241.813C1285.94 241.813 1281.24 252.111 1284.97 260.78L1247.42 272.493L1243.82 273.253L1242.16 265.997L1243.27 256.841V251.831L1285.94 241.813Z" fill="#D5D6DB"/>
<path d="M1167.35 238.107L1219.33 228.64L1288.21 239.602L1245.43 254.987L1167.35 238.107Z" fill="#7B2CBF"/>
<path d="M1167.35 238.105C1167.35 238.105 1162.48 247.306 1168.08 255.806L1245.17 272.493C1245.17 272.493 1240.39 265.156 1245.42 254.989L1167.35 238.105Z" fill="#7B2CBF"/>
<path opacity="0.1" d="M1167.35 238.105C1167.35 238.105 1162.48 247.306 1168.08 255.806L1245.17 272.493C1245.17 272.493 1240.39 265.156 1245.42 254.989L1167.35 238.105Z" fill="black"/>
<path d="M1245.18 272.492L1288.21 258.707C1288.21 258.707 1290.62 259.225 1289.06 260.985C1287.51 262.745 1246.01 274.252 1246.01 274.252L1168.09 255.805L1245.18 272.492Z" fill="#7B2CBF"/>
<path opacity="0.1" d="M1245.18 272.492L1288.21 258.707C1288.21 258.707 1290.62 259.225 1289.06 260.985C1287.51 262.745 1246.01 274.252 1246.01 274.252L1168.09 255.805L1245.18 272.492Z" fill="black"/>
<path opacity="0.1" d="M1261.74 256.759L1243.13 262.963L1243.2 263.16L1261.81 256.956L1261.74 256.759Z" fill="black"/>
<path opacity="0.1" d="M1265.47 256.142L1243.13 264.632L1243.2 264.826L1265.55 256.336L1265.47 256.142Z" fill="black"/>
<path opacity="0.1" d="M1268.89 256.11L1243.25 266.598L1243.32 266.79L1268.97 256.302L1268.89 256.11Z" fill="black"/>
<path opacity="0.1" d="M1272.62 255.211L1243.55 268.331L1243.64 268.52L1272.71 255.4L1272.62 255.211Z" fill="black"/>
<path opacity="0.1" d="M1275.74 255.197L1243.78 269.174L1243.86 269.364L1275.82 255.387L1275.74 255.197Z" fill="black"/>
<path opacity="0.1" d="M1282.59 254.054L1244.26 270.593L1244.34 270.784L1282.67 254.245L1282.59 254.054Z" fill="black"/>
<path d="M1288.21 239.601C1288.21 239.601 1290.1 240.36 1288.99 241.537C1287.89 242.714 1245.43 254.988 1245.43 254.988L1288.21 239.601Z" fill="#7B2CBF"/>
<path opacity="0.1" d="M1266.91 234.112C1266.91 234.112 1259.51 235.232 1258.13 236.751L1266.91 234.112Z" fill="black"/>
<path opacity="0.1" d="M1249.12 241.394C1249.87 240.832 1250.66 240.338 1251.5 239.916C1252.71 239.262 1253.89 238.543 1255.03 237.763" fill="black"/>
<path d="M1069.39 199.365C1069.39 199.365 1078.41 222.918 1083.54 220.563C1088.66 218.207 1087.27 208.197 1088.25 205.453C1089.23 202.71 1090.31 181.901 1090.31 181.901C1090.31 181.901 1090.81 167.181 1091.79 164.2C1092.69 161.462 1093.43 147.654 1093.55 145.481V145.193L1092.58 128.117L1087.08 126.745L1074.31 131.459L1072.54 141.545L1071.85 145.484L1071.56 147.162L1069.39 199.365Z" fill="#ED9DA0"/>
<path d="M998.868 200.396C998.868 200.396 989.851 223.949 984.723 221.593C979.596 219.238 980.986 209.228 980.008 206.484C979.029 203.74 977.945 182.932 977.945 182.932C977.945 182.932 977.45 168.211 976.472 165.231C975.564 162.492 974.828 148.685 974.704 146.512V146.223L975.683 129.148L981.188 127.776L993.954 132.486L995.722 142.573L996.412 146.512L996.707 148.19L998.868 200.396Z" fill="#ED9DA0"/>
<path d="M995.332 223.854C995.332 223.854 988.454 231.409 991.006 232.78C993.559 234.152 1010.07 259.866 1010.07 259.866C1010.07 259.866 1064.29 266.538 1074.52 256.528C1084.75 246.517 1084.54 228.635 1084.54 228.635C1084.54 228.635 1076.32 230.402 1075.43 229.442C1074.53 228.482 1069.61 223.854 1069.61 223.854C1069.61 223.854 1000.05 219.638 995.332 223.854Z" fill="#090814"/>
<path opacity="0.1" d="M1092.99 147.102H974.703V146.813L975.682 129.738C975.682 129.738 985.277 119.469 993.682 112.538L1067.95 109.596L1071.4 105.957L1083.91 111.691C1093.74 116.199 1092.95 128.96 1092.95 128.96C1092.95 128.96 1094.29 143.746 1092.99 147.102Z" fill="black"/>
<path d="M1092.99 146.513H974.703V146.224L975.682 129.149C975.682 129.149 985.277 118.88 993.682 111.949L1067.95 109.007L1071.4 105.368L1083.91 111.102C1093.74 115.61 1092.95 128.371 1092.95 128.371C1092.95 128.371 1094.29 143.157 1092.99 146.513Z" fill="#D6D6E3"/>
<path d="M1065.85 102.801L1067.83 132.884L1069.94 142.893L1071.56 150.548C1071.56 150.548 1075.68 209.43 1074.5 212.374C1073.32 215.318 1075.09 217.673 1075.34 219.239C1075.59 220.805 1075.09 224.739 1075.29 226.505C1075.48 228.272 1075.29 229.055 1070.78 228.425C1066.26 227.795 1059.97 226.7 1059.97 226.7C1059.97 226.7 1044.05 227.878 1038.55 225.917C1033.05 223.956 1022.64 223.95 1022.64 223.95C1022.64 223.95 1006.92 224.345 1001.82 223.756C996.711 223.168 993.953 230.039 990.617 228.072C987.281 226.106 994.542 207.075 996.9 201.576C999.258 196.076 993.759 182.145 993.759 182.145L1000.83 142.946L1002.41 134.061V106.127L1002.79 105.992C1004.23 105.433 1005.69 105.866 1006.71 104.714L1008.3 131.499L1063.7 133.465V101.828" fill="#D6D6E3"/>
<path d="M1059.79 300.141L1083.18 300.889L1079.82 283.568L1061.91 285.269L1059.79 300.141Z" fill="#ED9DA0"/>
<path d="M1132.24 259.084C1130.67 261.044 1124.58 264.577 1123.99 265.755C1123.4 266.933 1116.14 270.465 1112.4 271.054C1108.66 271.643 1096.88 274.199 1094.72 275.571C1093.17 276.56 1080.72 279.692 1072.55 281.43C1070.33 281.953 1068.09 282.356 1065.84 282.637C1062.3 282.831 1023.6 269.681 1023.6 269.681L1031.06 262.027L1031.47 261.884C1033.58 261.173 1043.33 257.881 1048.74 256.314C1054.84 254.548 1061.91 247.287 1061.91 247.287C1061.91 247.287 1072.32 243.754 1073.7 243.36C1075.08 242.966 1070.16 229.623 1070.16 229.623C1070.16 229.623 1092.75 226.491 1101.59 223.833C1110.44 221.176 1130.87 222.161 1134.6 232.565C1138.33 242.969 1133.84 257.123 1132.24 259.084Z" fill="#090814"/>
<path d="M1029.29 292.251C1029.29 292.251 1024.78 296.962 1020.26 296.573C1015.73 296.184 999.928 297.751 999.928 297.751C997.063 298.892 994.38 300.445 991.965 302.361C988.269 305.27 979.393 303.832 979.393 303.832C979.393 303.832 981.356 284.992 980.755 282.635C980.153 280.278 984.639 276.235 984.639 276.235L989.944 274.887L1003.38 271.448L1022.64 278.12L1029.29 292.251Z" fill="#090814"/>
<path opacity="0.1" d="M1072.55 281.429C1070.33 281.952 1068.09 282.355 1065.83 282.636C1062.3 282.83 1023.6 269.681 1023.6 269.681L1031.06 262.026L1031.47 261.884C1032.65 262.714 1033.62 263.426 1034.31 263.968C1037.55 266.523 1040.69 263.185 1041.87 263.185C1043.05 263.185 1053.26 271.624 1053.26 271.624C1053.26 271.624 1062.69 273.785 1064.26 275.745C1065.84 277.706 1071.34 277.318 1072.31 278.688C1072.61 279.115 1072.64 280.157 1072.55 281.429Z" fill="black"/>
<path d="M999.93 230.426C999.93 230.426 990.393 230.973 984.894 228.659C979.394 226.345 961.123 221.005 955.819 224.756C950.514 228.507 937.742 231.821 943.635 246.742C949.529 261.663 952.281 262.051 952.281 262.051C954.105 263.418 955.697 265.068 956.996 266.939C958.764 269.689 975.268 275.966 979.393 275.966C983.519 275.966 990.787 275.966 1001 283.032C1011.21 290.098 1020.45 290.885 1020.45 290.885C1020.45 290.885 1033.42 296.184 1037.46 297.362C1041.5 298.539 1059.94 303.638 1064.27 302.072C1068.6 300.506 1071.34 290.683 1071.34 290.683C1071.34 290.683 1073.31 281.851 1072.32 280.48C1071.34 279.109 1065.84 279.496 1064.27 277.537C1062.7 275.578 1053.27 273.416 1053.27 273.416C1053.27 273.416 1043.08 264.972 1041.9 264.972C1040.72 264.972 1037.58 268.305 1034.33 265.755C1027.87 260.968 1021.07 256.639 1013.99 252.8C1006.53 248.873 999.93 230.426 999.93 230.426Z" fill="#090814"/>
<path opacity="0.1" d="M980.756 236.12C982.454 235.773 984.209 235.823 985.885 236.265C987.561 236.707 989.111 237.53 990.417 238.669C995.132 242.596 1011 250.481 1011 250.481" fill="black"/>
<path opacity="0.1" d="M1098.65 235.872C1098.65 235.872 1077.62 239.052 1073.7 243.368L1098.65 235.872Z" fill="black"/>
<path d="M1122.81 300.889H1121.89C1118.56 300.771 1107.3 300.418 1105.13 300.889C1102.58 301.478 1068.78 300.889 1068.78 300.889L1075.39 299.517C1075.39 299.517 1072.94 290.932 1074.49 290.22C1074.49 290.22 1065.65 284.402 1072.32 280.474C1078.98 276.547 1086.17 278.202 1086.17 278.202L1102.9 272.537L1106.11 271.446C1106.11 271.446 1124.97 272.429 1130.08 285.383C1135.19 298.337 1122.81 300.889 1122.81 300.889Z" fill="#090814"/>
<path d="M979.294 129.443L989.726 120.022C989.726 120.022 1030.18 117.373 1031.85 131.11C1031.85 131.11 1046.19 114.824 1076.35 118.451L1089.11 128.602L1053.84 144.064L1019.57 155.941L994.323 144.653L979.294 129.443Z" fill="#F2F2F2"/>
<path d="M974.679 129.443L979.297 184.598L1028.22 187.053L1026.09 132.134L1026.05 131.21L974.679 129.443Z" fill="#7B2CBF"/>
<path d="M1091.35 128.266L1040.89 135.826V191.226L1090.2 184.108L1091.35 128.266Z" fill="#7B2CBF"/>
<path opacity="0.3" d="M1079.45 141.785L1052.19 144.812L1052.79 154.092L1079.43 151.183L1079.45 141.785Z" fill="white"/>
<path d="M981.947 214.133L984.723 221.593C984.723 221.593 988.849 225.126 993.364 223.359C997.879 221.592 1001.82 220.715 1003.78 218.996C1005.74 217.277 1008.49 208.639 1008.49 208.639C1008.49 208.639 1011.25 199.218 1013.99 196.862C1016.74 194.507 1024.01 162.058 1013.99 165.231C1003.97 168.404 996.311 197.846 996.311 197.846C996.311 197.846 994.542 200.001 991.99 200.201C989.438 200.401 984.328 199.807 983.345 201.967C982.361 204.128 979 209.817 981.947 214.133Z" fill="#ED9DA0"/>
<path d="M1040.89 135.821C1038.3 136.402 1035.62 136.372 1033.05 135.732C1030.48 135.092 1028.09 133.86 1026.09 132.135L1028.21 187.048C1028.21 187.048 1033.22 192.465 1040.89 191.228V135.821Z" fill="#7B2CBF"/>
<path opacity="0.1" d="M1040.89 135.821C1038.3 136.402 1035.62 136.372 1033.05 135.732C1030.48 135.092 1028.09 133.86 1026.09 132.135L1028.21 187.048C1028.21 187.048 1033.22 192.465 1040.89 191.228V135.821Z" fill="black"/>
<path opacity="0.1" d="M1042.06 129.632C1042.06 129.632 1062.59 123.362 1067.95 124.245L1042.06 129.632Z" fill="black"/>
<path opacity="0.1" d="M1019.1 126.895C1019.1 126.895 999.205 122.185 995.88 123.521L1019.1 126.895Z" fill="black"/>
<path opacity="0.1" d="M1055.01 130.415C1055.01 130.415 1068.74 125.385 1073.7 127.777L1055.01 130.415Z" fill="black"/>
<path opacity="0.1" d="M1048.1 256.557C1050.22 254.961 1052.49 253.556 1054.86 252.359C1058.4 250.657 1064.88 246.241 1064.88 246.241" fill="black"/>
<path opacity="0.1" d="M995.88 196.469C995.88 196.469 987.268 203.505 984.681 204.123C982.094 204.742 980.497 210.229 980.497 210.229" fill="black"/>
<path d="M1086.29 213.085L1083.54 220.563C1083.54 220.563 1079.42 224.096 1074.9 222.329C1070.38 220.562 1066.45 219.686 1064.48 217.966C1062.51 216.247 1059.77 207.609 1059.77 207.609C1059.77 207.609 1057.02 198.188 1054.27 195.833C1051.52 193.477 1044.25 161.028 1054.27 164.201C1064.29 167.375 1071.95 196.816 1071.95 196.816C1071.95 196.816 1073.72 198.971 1076.27 199.171C1078.82 199.371 1083.93 198.777 1084.92 200.938C1085.9 203.098 1089.24 208.787 1086.29 213.085Z" fill="#ED9DA0"/>
<path opacity="0.1" d="M1074.18 197.115C1074.18 197.115 1081.77 203.284 1084.05 203.827C1086.34 204.37 1087.74 209.181 1087.74 209.181" fill="black"/>
</g>
<path d="M222.719 123.984H221.672C221.672 125.026 221.5 125.911 221.156 126.641C220.25 128.547 218.51 130.042 215.938 131.125C213.75 132.042 211.458 132.5 209.062 132.5C203.427 132.5 200.609 129.5 200.609 123.5C200.609 122.135 200.938 120.542 201.594 118.719L204.844 119.75C204.479 120.969 204.297 122.13 204.297 123.234C204.297 126.703 206.068 128.438 209.609 128.438C213.464 128.438 216.109 127.594 217.547 125.906C217.672 125.76 217.734 125.604 217.734 125.438C217.734 125.219 217.599 125.062 217.328 124.969C216.443 124.646 214.219 124.068 210.656 123.234L211.625 119.812H222.719V123.984ZM230.125 130.203V126.875H226.828V130.203H230.125ZM225.672 130.203V126.875H222.375V130.203H225.672ZM221.828 119.812H224.625C225.51 119.812 225.953 119.479 225.953 118.812C225.953 118.552 225.87 118.271 225.703 117.969L223.906 114.75L227.234 112.547C228.995 115.474 229.875 117.589 229.875 118.891C229.875 122.286 228.396 123.984 225.438 123.984H221.828V119.812ZM240.75 123.984H237.516C235.87 123.984 234.63 123.255 233.797 121.797C233.13 120.63 232.797 119.151 232.797 117.359V104.703H236.484V116.047C236.484 117.286 236.62 118.167 236.891 118.688C237.276 119.438 238.026 119.812 239.141 119.812H240.75V123.984ZM253.906 123.984H253C252.156 123.984 251.38 124.104 250.672 124.344C249.672 124.688 249.172 125.198 249.172 125.875C249.172 126.438 249.667 126.969 250.656 127.469C250.958 127.615 251.693 127.901 252.859 128.328L251.656 132.016C247.135 130.786 244.26 127.896 243.031 123.344C242.594 123.771 241.849 123.984 240.797 123.984H239.859V119.812H240.5C242 119.812 242.75 119.156 242.75 117.844V112.922H246.453V120.016C246.453 121.339 246.62 122.396 246.953 123.188C247.443 122.156 248.182 121.339 249.172 120.734C250.161 120.12 251.234 119.812 252.391 119.812H253.906V123.984ZM259.688 111.5H255.984V107.797H259.688V111.5ZM263.625 123.984H262.766C261.974 123.984 261.214 123.76 260.484 123.312C259.766 122.854 259.234 122.266 258.891 121.547C258.13 123.172 256.828 123.984 254.984 123.984H253.016V119.812H253.734C255.224 119.812 255.969 118.974 255.969 117.297V113.188H259.656V115.297C259.656 118.307 260.74 119.812 262.906 119.812H263.625V123.984ZM271.578 110.688V107.359H268.266V110.688H271.578ZM267.125 110.688V107.359H263.828V110.688H267.125ZM262.734 119.812H265.531C266.417 119.812 266.859 119.479 266.859 118.812C266.859 118.552 266.776 118.271 266.609 117.969L264.812 114.75L268.141 112.547C269.901 115.474 270.781 117.589 270.781 118.891C270.781 122.286 269.302 123.984 266.344 123.984H262.734V119.812ZM301.969 112.594L300.328 115.531C298.943 114.917 298.115 114.609 297.844 114.609C296.229 114.609 294.839 115.443 293.672 117.109C293.609 117.203 293.573 117.323 293.562 117.469C293.552 117.625 293.589 117.719 293.672 117.75C294.161 117.958 294.865 118.094 295.781 118.156L298.547 118.359C299.609 118.432 300.453 118.76 301.078 119.344C301.745 119.958 302.078 120.786 302.078 121.828C302.078 123.766 301.005 125.573 298.859 127.25C296.401 129.177 293.292 130.141 289.531 130.141C286.479 130.141 284.224 129.188 282.766 127.281C281.599 125.75 281.016 123.75 281.016 121.281C281.016 119.938 281.323 118.344 281.938 116.5L285.25 117.484C284.885 119.036 284.703 120.193 284.703 120.953C284.703 123.047 285.286 124.479 286.453 125.25C287.214 125.75 288.365 126 289.906 126C291.396 126 292.927 125.755 294.5 125.266C296.708 124.578 298.005 123.594 298.391 122.312C294.87 122.198 292.651 121.958 291.734 121.594C290.557 121.125 289.969 120.047 289.969 118.359C289.969 116.505 290.896 114.786 292.75 113.203C294.438 111.755 296.047 111.031 297.578 111.031C299.068 111.031 300.531 111.552 301.969 112.594ZM312.656 123.984H309.422C307.776 123.984 306.536 123.255 305.703 121.797C305.036 120.63 304.703 119.151 304.703 117.359V104.703H308.391V116.047C308.391 117.286 308.526 118.167 308.797 118.688C309.182 119.438 309.932 119.812 311.047 119.812H312.656V123.984ZM329.422 120.531C329.422 121.969 329.016 123.135 328.203 124.031C327.37 124.958 326.24 125.422 324.812 125.422C323.75 125.422 322.594 125.089 321.344 124.422C321.083 124.286 320.417 123.854 319.344 123.125C318.333 123.708 317.156 124 315.812 124H311.766V119.812H312.578C314.141 119.812 315.177 119.724 315.688 119.547C315.156 119.109 314.714 118.521 314.359 117.781C314.016 117.042 313.844 116.328 313.844 115.641C313.844 114.026 314.964 112.542 317.203 111.188C316.911 110.927 316.479 110.604 315.906 110.219L318.188 107.5C318.906 108.01 319.599 108.531 320.266 109.062C321.911 110.365 323.552 111.797 325.188 113.359C326.552 114.672 327.505 115.714 328.047 116.484C328.964 117.807 329.422 119.156 329.422 120.531ZM326.234 120.312C326.234 119.771 325.849 119.12 325.078 118.359C324.661 118.016 324.245 117.667 323.828 117.312C323.734 118.792 323.104 119.865 321.938 120.531C323.385 121.281 324.328 121.656 324.766 121.656C325.13 121.656 325.464 121.526 325.766 121.266C326.078 120.995 326.234 120.677 326.234 120.312ZM321.281 115.859C321.281 115.359 321.083 114.927 320.688 114.562C320.302 114.198 319.854 114.016 319.344 114.016C318.854 114.016 318.411 114.161 318.016 114.453C317.589 114.776 317.375 115.172 317.375 115.641C317.375 116.203 317.547 116.792 317.891 117.406C318.255 118.073 318.682 118.495 319.172 118.672C319.755 118.609 320.26 118.266 320.688 117.641C321.083 117.068 321.281 116.474 321.281 115.859ZM347.609 109.891H343.906V106.188H347.609V109.891ZM349.766 122.484C348.609 124.453 345.01 127.188 338.969 130.688L337.125 127.25C342.354 124.479 345.573 122.094 346.781 120.094C347.052 119.646 347.188 119.099 347.188 118.453C347.188 117.953 347.089 117.505 346.891 117.109C346.599 116.307 345.948 114.964 344.938 113.078L348.359 111.078L350.422 115.203C350.901 116.161 351.141 117.135 351.141 118.125C351.141 119.479 350.682 120.932 349.766 122.484ZM365.203 120.531C365.203 123.344 363.839 125.958 361.109 128.375C359.078 130.177 356.594 131.651 353.656 132.797L351.969 129.484C354.479 128.266 356.052 127.458 356.688 127.062C359.375 125.365 360.88 123.641 361.203 121.891C360.474 122.13 359.755 122.25 359.047 122.25C357.432 122.25 356.146 121.719 355.188 120.656C354.271 119.635 353.812 118.307 353.812 116.672C353.812 115.37 354.245 114.24 355.109 113.281C355.995 112.281 357.083 111.781 358.375 111.781C359.792 111.781 361.182 112.427 362.547 113.719C364.318 115.385 365.203 117.656 365.203 120.531ZM361.094 118.188C361.062 117.344 360.719 116.656 360.062 116.125C359.542 115.698 359.036 115.484 358.547 115.484C358.245 115.484 357.943 115.625 357.641 115.906C357.339 116.188 357.188 116.479 357.188 116.781C357.188 117.667 357.656 118.172 358.594 118.297C359.51 118.422 360.344 118.385 361.094 118.188ZM378.797 122.484C377.641 124.453 374.042 127.188 368 130.688L366.156 127.25C371.385 124.479 374.604 122.094 375.812 120.094C376.083 119.646 376.219 119.099 376.219 118.453C376.219 117.953 376.12 117.505 375.922 117.109C375.63 116.307 374.979 114.964 373.969 113.078L377.391 111.078L379.453 115.203C379.932 116.161 380.172 117.135 380.172 118.125C380.172 119.479 379.714 120.932 378.797 122.484ZM406.844 113.453H403.547V110.141H406.844V113.453ZM402.391 113.453H399.094V110.141H402.391V113.453ZM413.484 123.984H394.969C391.354 123.984 389.547 122.104 389.547 118.344V116H393.234V117.734C393.234 118.536 393.453 119.094 393.891 119.406C394.255 119.677 394.854 119.812 395.688 119.812H412.938C413.792 119.812 414.219 119.526 414.219 118.953C414.219 118.672 414.12 118.344 413.922 117.969L412.234 114.75L415.375 112.641C415.49 112.828 415.964 113.714 416.797 115.297C418.38 118.307 420.281 119.812 422.5 119.812H423.219V123.984H422.438C420.385 123.984 418.667 123.01 417.281 121.062C416.927 123.01 415.661 123.984 413.484 123.984ZM436.688 113.297C436.688 117.526 437.661 119.641 439.609 119.641C440.766 119.641 441.344 119.146 441.344 118.156C441.344 117.198 440.802 115.771 439.719 113.875L442.766 112.047C444.349 114.62 445.141 116.677 445.141 118.219C445.141 119.865 444.74 121.188 443.938 122.188C443.073 123.271 441.833 123.812 440.219 123.812C438.219 123.812 436.693 123.021 435.641 121.438C434.755 123.135 433.401 123.984 431.578 123.984C430.797 123.984 430.036 123.755 429.297 123.297C428.557 122.828 427.995 122.245 427.609 121.547C426.693 123.172 425.234 123.984 423.234 123.984H422.328V119.812H422.922C423.641 119.812 424.151 119.698 424.453 119.469C424.901 119.125 425.125 118.438 425.125 117.406V113.234H428.812C428.812 115.411 428.969 116.964 429.281 117.891C429.677 119.057 430.406 119.641 431.469 119.641C432.052 119.641 432.51 119.359 432.844 118.797C433.125 118.318 433.266 117.766 433.266 117.141V113.297H436.688ZM459.203 120.531C459.203 123.344 457.839 125.958 455.109 128.375C453.078 130.177 450.594 131.651 447.656 132.797L445.969 129.484C448.479 128.266 450.052 127.458 450.688 127.062C453.375 125.365 454.88 123.641 455.203 121.891C454.474 122.13 453.755 122.25 453.047 122.25C451.432 122.25 450.146 121.719 449.188 120.656C448.271 119.635 447.812 118.307 447.812 116.672C447.812 115.37 448.245 114.24 449.109 113.281C449.995 112.281 451.083 111.781 452.375 111.781C453.792 111.781 455.182 112.427 456.547 113.719C458.318 115.385 459.203 117.656 459.203 120.531ZM455.094 118.188C455.062 117.344 454.719 116.656 454.062 116.125C453.542 115.698 453.036 115.484 452.547 115.484C452.245 115.484 451.943 115.625 451.641 115.906C451.339 116.188 451.188 116.479 451.188 116.781C451.188 117.667 451.656 118.172 452.594 118.297C453.51 118.422 454.344 118.385 455.094 118.188ZM473.812 118.719C473.812 118.312 473.667 117.932 473.375 117.578L467.406 110.406L470.234 107.703L476.266 114.969C477.234 116.135 477.719 117.365 477.719 118.656C477.719 122.208 475.708 123.984 471.688 123.984H467.688C465.562 123.984 463.604 122.844 461.812 120.562L464.359 118.016C464.359 118.13 464.672 118.438 465.297 118.938C466.026 119.521 466.677 119.812 467.25 119.812H471.859C473.161 119.812 473.812 119.448 473.812 118.719ZM510.766 123.984H509.875C508.833 123.984 508.042 123.734 507.5 123.234C507.5 125.214 507.208 126.875 506.625 128.219C505 131.979 501.797 133.859 497.016 133.859C493.578 133.859 490.984 132.734 489.234 130.484C487.839 128.693 487.141 126.505 487.141 123.922C487.141 123.526 487.245 122.839 487.453 121.859C487.693 120.714 487.964 119.812 488.266 119.156L491.484 120.297C490.943 121.62 490.672 122.849 490.672 123.984C490.672 126.005 491.406 127.49 492.875 128.438C493.99 129.156 495.406 129.516 497.125 129.516C501.542 129.516 503.75 127.49 503.75 123.438C503.75 121.583 502.74 118.906 500.719 115.406L504.141 113.344L505.594 116.438C506.281 117.906 506.995 118.875 507.734 119.344C508.224 119.656 508.932 119.812 509.859 119.812H510.766V123.984ZM497.422 117.828V114.141H493.734V117.828H497.422ZM518.156 130.203V126.875H514.859V130.203H518.156ZM513.703 130.203V126.875H510.406V130.203H513.703ZM509.859 119.812H512.656C513.542 119.812 513.984 119.479 513.984 118.812C513.984 118.552 513.901 118.271 513.734 117.969L511.938 114.75L515.266 112.547C517.026 115.474 517.906 117.589 517.906 118.891C517.906 122.286 516.427 123.984 513.469 123.984H509.859V119.812ZM532.672 121.984C532.589 122.339 532.26 123.005 531.688 123.984C530.531 125.964 526.911 128.677 520.828 132.125L518.969 128.766C520.458 127.953 521.833 127.146 523.094 126.344C526.021 124.469 527.87 122.891 528.641 121.609C528.911 121.161 529.047 120.625 529.047 120C529.047 119.49 528.948 119.026 528.75 118.609C528.458 117.818 527.807 116.479 526.797 114.594L530.156 112.578L532.266 116.719C532.755 117.688 533.177 118.344 533.531 118.688C534.292 119.438 535.38 119.812 536.797 119.812H537.719V123.984H536.812C535.083 123.984 533.703 123.318 532.672 121.984ZM545.875 110.688H542.578V107.359H545.875V110.688ZM541.422 110.688H538.125V107.359H541.422V110.688ZM547.438 123.984H546.578C545.786 123.984 545.026 123.76 544.297 123.312C543.578 122.854 543.047 122.266 542.703 121.547C541.943 123.172 540.641 123.984 538.797 123.984H536.828V119.812H537.547C539.036 119.812 539.781 118.974 539.781 117.297V113.188H543.469V115.297C543.469 118.307 544.552 119.812 546.719 119.812H547.438V123.984ZM560.594 123.984H559.688C558.844 123.984 558.068 124.104 557.359 124.344C556.359 124.688 555.859 125.198 555.859 125.875C555.859 126.438 556.354 126.969 557.344 127.469C557.646 127.615 558.38 127.901 559.547 128.328L558.344 132.016C553.823 130.786 550.948 127.896 549.719 123.344C549.281 123.771 548.536 123.984 547.484 123.984H546.547V119.812H547.188C548.688 119.812 549.438 119.156 549.438 117.844V112.922H553.141V120.016C553.141 121.339 553.307 122.396 553.641 123.188C554.13 122.156 554.87 121.339 555.859 120.734C556.849 120.12 557.922 119.812 559.078 119.812H560.594V123.984ZM565.766 130.453V126.766H562.078V130.453H565.766ZM559.703 119.812H562.5C563.385 119.812 563.828 119.479 563.828 118.812C563.828 118.552 563.745 118.271 563.578 117.969L561.781 114.75L565.109 112.547C566.87 115.474 567.75 117.589 567.75 118.891C567.75 122.286 566.271 123.984 563.312 123.984H559.703V119.812ZM581.453 116.062C580.339 116.281 579.604 116.839 579.25 117.734C579.062 118.214 578.969 118.979 578.969 120.031H581.281V124H577.172V120.578C577.172 117.339 578.599 115.604 581.453 115.375V116.062ZM606.031 130.516H602.328V126.812H606.031V130.516ZM596.312 123.984C592.698 123.984 590.891 122.104 590.891 118.344V116H594.578V117.734C594.578 118.536 594.797 119.094 595.234 119.406C595.599 119.677 596.198 119.812 597.031 119.812H614.281C615.135 119.812 615.562 119.526 615.562 118.953C615.562 118.672 615.464 118.344 615.266 117.969L613.578 114.75L616.781 112.547C618.594 115.516 619.5 117.63 619.5 118.891C619.5 120.411 619.135 121.62 618.406 122.516C617.615 123.495 616.474 123.984 614.984 123.984H596.312ZM622.188 118.125C622.188 116.812 622.62 115.672 623.484 114.703C624.359 113.724 625.448 113.234 626.75 113.234C628.052 113.234 629.297 113.688 630.484 114.594C632.026 115.771 633.026 117.51 633.484 119.812H636.922V123.984H633.484C633.047 125.828 631.88 127.651 629.984 129.453C627.88 131.453 625.208 133.068 621.969 134.297L620.281 130.875C622.115 130.062 623.203 129.568 623.547 129.391C624.776 128.776 625.781 128.13 626.562 127.453C627.771 126.411 628.682 125.167 629.297 123.719C628.984 123.75 628.667 123.766 628.344 123.766C626.667 123.766 625.266 123.328 624.141 122.453C622.839 121.432 622.188 119.99 622.188 118.125ZM629.469 119.641C629.438 118.797 629.094 118.109 628.438 117.578C627.906 117.141 627.401 116.922 626.922 116.922C626.62 116.922 626.318 117.068 626.016 117.359C625.714 117.641 625.562 117.927 625.562 118.219C625.562 119.115 626.031 119.625 626.969 119.75C627.885 119.875 628.719 119.839 629.469 119.641ZM640.953 108.438H637.25V104.75H640.953V108.438ZM651.875 121.109L649.766 123.984H636.016V119.812H645.484L641.625 116C641.073 115.458 640.438 115.188 639.719 115.188H637.219V111.391H640.438C641.594 111.391 642.552 111.771 643.312 112.531L651.875 121.109ZM676.406 130.516H672.703V126.812H676.406V130.516ZM666.688 123.984C663.073 123.984 661.266 122.104 661.266 118.344V116H664.953V117.734C664.953 118.536 665.172 119.094 665.609 119.406C665.974 119.677 666.573 119.812 667.406 119.812H684.656C685.51 119.812 685.938 119.526 685.938 118.953C685.938 118.672 685.839 118.344 685.641 117.969L683.953 114.75L687.156 112.547C688.969 115.516 689.875 117.63 689.875 118.891C689.875 120.411 689.51 121.62 688.781 122.516C687.99 123.495 686.849 123.984 685.359 123.984H666.688ZM700.469 123.984H697.234C695.589 123.984 694.349 123.255 693.516 121.797C692.849 120.63 692.516 119.151 692.516 117.359V104.703H696.203V116.047C696.203 117.286 696.339 118.167 696.609 118.688C696.995 119.438 697.745 119.812 698.859 119.812H700.469V123.984ZM708.625 110.688H705.328V107.359H708.625V110.688ZM704.172 110.688H700.875V107.359H704.172V110.688ZM710.188 123.984H709.328C708.536 123.984 707.776 123.76 707.047 123.312C706.328 122.854 705.797 122.266 705.453 121.547C704.693 123.172 703.391 123.984 701.547 123.984H699.578V119.812H700.297C701.786 119.812 702.531 118.974 702.531 117.297V113.188H706.219V115.297C706.219 118.307 707.302 119.812 709.469 119.812H710.188V123.984ZM709.297 124V119.828H712.797C714.089 119.828 714.734 119.484 714.734 118.797C714.734 118.474 714.589 118.016 714.297 117.422L711.547 111.844C711.151 111.042 710.953 110.318 710.953 109.672C710.953 108.391 711.672 107.536 713.109 107.109L723.328 104.078L724.781 107.234L715.781 109.547C715.229 109.693 714.953 109.932 714.953 110.266C714.953 110.453 715.026 110.688 715.172 110.969L717.953 116.297C718.411 117.172 718.641 118.078 718.641 119.016C718.641 120.599 718.047 121.849 716.859 122.766C715.786 123.589 714.432 124 712.797 124H709.297ZM759.547 121.266C758.599 123.078 756.807 123.984 754.172 123.984H738.375C734.906 123.984 733.172 121.995 733.172 118.016V116H736.859V117.734C736.859 119.12 737.656 119.812 739.25 119.812H754.172C754.589 119.812 754.979 119.74 755.344 119.594C755.833 119.396 756.078 119.12 756.078 118.766C756.078 118.286 755.969 117.833 755.75 117.406L752.906 111.828C752.562 111.151 752.391 110.495 752.391 109.859C752.391 108.464 753.099 107.542 754.516 107.094L764.062 104.062L765.516 107.266L757.156 109.656C756.615 109.812 756.344 110.052 756.344 110.375C756.344 110.562 756.417 110.792 756.562 111.062L759.328 116.281C760.578 118.635 762.552 119.812 765.25 119.812H765.812V123.984H764.906C763.865 123.984 762.859 123.745 761.891 123.266C760.87 122.766 760.089 122.099 759.547 121.266ZM773.219 130.203V126.875H769.922V130.203H773.219ZM768.766 130.203V126.875H765.469V130.203H768.766ZM764.922 119.812H767.719C768.604 119.812 769.047 119.479 769.047 118.812C769.047 118.552 768.964 118.271 768.797 117.969L767 114.75L770.328 112.547C772.089 115.474 772.969 117.589 772.969 118.891C772.969 122.286 771.49 123.984 768.531 123.984H764.922V119.812Z" fill="#090814"/>
<path d="M189.562 192.984H186.328C184.682 192.984 183.443 192.255 182.609 190.797C181.943 189.63 181.609 188.151 181.609 186.359V173.703H185.297V185.047C185.297 186.286 185.432 187.167 185.703 187.688C186.089 188.438 186.839 188.812 187.953 188.812H189.562V192.984ZM206.328 189.531C206.328 190.969 205.922 192.135 205.109 193.031C204.276 193.958 203.146 194.422 201.719 194.422C200.656 194.422 199.5 194.089 198.25 193.422C197.99 193.286 197.323 192.854 196.25 192.125C195.24 192.708 194.062 193 192.719 193H188.672V188.812H189.484C191.047 188.812 192.083 188.724 192.594 188.547C192.062 188.109 191.62 187.521 191.266 186.781C190.922 186.042 190.75 185.328 190.75 184.641C190.75 183.026 191.87 181.542 194.109 180.188C193.818 179.927 193.385 179.604 192.812 179.219L195.094 176.5C195.812 177.01 196.505 177.531 197.172 178.062C198.818 179.365 200.458 180.797 202.094 182.359C203.458 183.672 204.411 184.714 204.953 185.484C205.87 186.807 206.328 188.156 206.328 189.531ZM203.141 189.312C203.141 188.771 202.755 188.12 201.984 187.359C201.568 187.016 201.151 186.667 200.734 186.312C200.641 187.792 200.01 188.865 198.844 189.531C200.292 190.281 201.234 190.656 201.672 190.656C202.036 190.656 202.37 190.526 202.672 190.266C202.984 189.995 203.141 189.677 203.141 189.312ZM198.188 184.859C198.188 184.359 197.99 183.927 197.594 183.562C197.208 183.198 196.76 183.016 196.25 183.016C195.76 183.016 195.318 183.161 194.922 183.453C194.495 183.776 194.281 184.172 194.281 184.641C194.281 185.203 194.453 185.792 194.797 186.406C195.161 187.073 195.589 187.495 196.078 187.672C196.661 187.609 197.167 187.266 197.594 186.641C197.99 186.068 198.188 185.474 198.188 184.859ZM230.906 199.516H227.203V195.812H230.906V199.516ZM221.188 192.984C217.573 192.984 215.766 191.104 215.766 187.344V185H219.453V186.734C219.453 187.536 219.672 188.094 220.109 188.406C220.474 188.677 221.073 188.812 221.906 188.812H239.156C240.01 188.812 240.438 188.526 240.438 187.953C240.438 187.672 240.339 187.344 240.141 186.969L238.453 183.75L241.656 181.547C243.469 184.516 244.375 186.63 244.375 187.891C244.375 189.411 244.01 190.62 243.281 191.516C242.49 192.495 241.349 192.984 239.859 192.984H221.188ZM254.969 192.984H251.734C250.089 192.984 248.849 192.255 248.016 190.797C247.349 189.63 247.016 188.151 247.016 186.359V173.703H250.703V185.047C250.703 186.286 250.839 187.167 251.109 187.688C251.495 188.438 252.245 188.812 253.359 188.812H254.969V192.984ZM263.125 179.688H259.828V176.359H263.125V179.688ZM258.672 179.688H255.375V176.359H258.672V179.688ZM264.688 192.984H263.828C263.036 192.984 262.276 192.76 261.547 192.312C260.828 191.854 260.297 191.266 259.953 190.547C259.193 192.172 257.891 192.984 256.047 192.984H254.078V188.812H254.797C256.286 188.812 257.031 187.974 257.031 186.297V182.188H260.719V184.297C260.719 187.307 261.802 188.812 263.969 188.812H264.688V192.984ZM263.797 193V188.828H267.297C268.589 188.828 269.234 188.484 269.234 187.797C269.234 187.474 269.089 187.016 268.797 186.422L266.047 180.844C265.651 180.042 265.453 179.318 265.453 178.672C265.453 177.391 266.172 176.536 267.609 176.109L277.828 173.078L279.281 176.234L270.281 178.547C269.729 178.693 269.453 178.932 269.453 179.266C269.453 179.453 269.526 179.688 269.672 179.969L272.453 185.297C272.911 186.172 273.141 187.078 273.141 188.016C273.141 189.599 272.547 190.849 271.359 191.766C270.286 192.589 268.932 193 267.297 193H263.797ZM308.625 181.594L306.984 184.531C305.599 183.917 304.771 183.609 304.5 183.609C302.885 183.609 301.495 184.443 300.328 186.109C300.266 186.203 300.229 186.323 300.219 186.469C300.208 186.625 300.245 186.719 300.328 186.75C300.818 186.958 301.521 187.094 302.438 187.156L305.203 187.359C306.266 187.432 307.109 187.76 307.734 188.344C308.401 188.958 308.734 189.786 308.734 190.828C308.734 192.766 307.661 194.573 305.516 196.25C303.057 198.177 299.948 199.141 296.188 199.141C293.135 199.141 290.88 198.188 289.422 196.281C288.255 194.75 287.672 192.75 287.672 190.281C287.672 188.938 287.979 187.344 288.594 185.5L291.906 186.484C291.542 188.036 291.359 189.193 291.359 189.953C291.359 192.047 291.943 193.479 293.109 194.25C293.87 194.75 295.021 195 296.562 195C298.052 195 299.583 194.755 301.156 194.266C303.365 193.578 304.661 192.594 305.047 191.312C301.526 191.198 299.307 190.958 298.391 190.594C297.214 190.125 296.625 189.047 296.625 187.359C296.625 185.505 297.552 183.786 299.406 182.203C301.094 180.755 302.703 180.031 304.234 180.031C305.724 180.031 307.188 180.552 308.625 181.594ZM319.312 192.984H316.078C314.432 192.984 313.193 192.255 312.359 190.797C311.693 189.63 311.359 188.151 311.359 186.359V173.703H315.047V185.047C315.047 186.286 315.182 187.167 315.453 187.688C315.839 188.438 316.589 188.812 317.703 188.812H319.312V192.984ZM327.469 199.203H324.172V195.875H327.469V199.203ZM323.016 199.203H319.719V195.875H323.016V199.203ZM329.031 192.984H328.172C327.38 192.984 326.62 192.76 325.891 192.312C325.172 191.854 324.641 191.266 324.297 190.547C323.536 192.172 322.234 192.984 320.391 192.984H318.422V188.812H319.141C320.63 188.812 321.375 187.974 321.375 186.297V182.188H325.062V184.297C325.062 187.307 326.146 188.812 328.312 188.812H329.031V192.984ZM333.906 180.5V176.797H330.203V180.5H333.906ZM328.141 188.812H330.938C331.823 188.812 332.266 188.479 332.266 187.812C332.266 187.552 332.182 187.271 332.016 186.969L330.219 183.75L333.547 181.547C335.307 184.474 336.188 186.589 336.188 187.891C336.188 191.286 334.708 192.984 331.75 192.984H328.141V188.812ZM350.75 187.719C350.75 187.312 350.604 186.932 350.312 186.578L344.344 179.406L347.172 176.703L353.203 183.969C354.172 185.135 354.656 186.365 354.656 187.656C354.656 191.208 352.646 192.984 348.625 192.984H344.625C342.5 192.984 340.542 191.844 338.75 189.562L341.297 187.016C341.297 187.13 341.609 187.438 342.234 187.938C342.964 188.521 343.615 188.812 344.188 188.812H348.797C350.099 188.812 350.75 188.448 350.75 187.719ZM381.578 192.984H380.656C378.406 192.984 376.479 192.083 374.875 190.281C373.76 190.646 372.312 190.828 370.531 190.828C368.021 190.828 366.219 190.141 365.125 188.766C364.427 187.88 364.078 186.849 364.078 185.672C364.078 183.974 365.469 182.396 368.25 180.938C368.396 180.865 369.031 180.542 370.156 179.969L369.344 177.969L372.5 176.062L375.922 185.062C376.411 186.344 376.943 187.245 377.516 187.766C378.286 188.464 379.37 188.812 380.766 188.812H381.578V192.984ZM372.922 187.031C372.339 185.542 371.797 184.255 371.297 183.172C369.411 184.109 368.198 184.87 367.656 185.453C367.625 185.536 367.609 185.771 367.609 186.156C367.786 186.812 368.818 187.141 370.703 187.141C371.286 187.141 372.026 187.104 372.922 187.031ZM386.734 199.453V195.766H383.047V199.453H386.734ZM380.672 188.812H383.469C384.354 188.812 384.797 188.479 384.797 187.812C384.797 187.552 384.714 187.271 384.547 186.969L382.75 183.75L386.078 181.547C387.839 184.474 388.719 186.589 388.719 187.891C388.719 191.286 387.24 192.984 384.281 192.984H380.672V188.812ZM409.984 190.984C409.901 191.339 409.573 192.005 409 192.984C407.844 194.964 404.224 197.677 398.141 201.125L396.281 197.766C397.771 196.953 399.146 196.146 400.406 195.344C403.333 193.469 405.182 191.891 405.953 190.609C406.224 190.161 406.359 189.625 406.359 189C406.359 188.49 406.26 188.026 406.062 187.609C405.771 186.818 405.12 185.479 404.109 183.594L407.469 181.578L409.578 185.719C410.068 186.688 410.49 187.344 410.844 187.688C411.604 188.438 412.693 188.812 414.109 188.812H415.031V192.984H414.125C412.396 192.984 411.016 192.318 409.984 190.984ZM423.281 185.219C423.281 184.771 423.083 184.417 422.688 184.156C422.354 183.927 421.953 183.812 421.484 183.812C420.286 183.812 419.688 184.281 419.688 185.219C419.688 185.719 419.917 186.203 420.375 186.672C420.74 187.047 421.109 187.307 421.484 187.453C421.849 187.339 422.219 187.089 422.594 186.703C423.052 186.234 423.281 185.74 423.281 185.219ZM414.141 192.984V188.812H418.234C417.036 187.708 416.438 186.474 416.438 185.109C416.438 183.609 416.901 182.448 417.828 181.625C418.714 180.833 419.917 180.438 421.438 180.438C424.833 180.438 426.531 181.995 426.531 185.109C426.531 185.922 426.292 186.729 425.812 187.531C425.406 188.219 425.016 188.646 424.641 188.812H428.672V192.984H426.156C425.427 192.984 424.516 192.745 423.422 192.266C422.464 191.849 421.818 191.474 421.484 191.141C420.995 191.536 420.328 191.917 419.484 192.281C418.391 192.75 417.411 192.984 416.547 192.984H414.141ZM423.266 178.766H419.562V175.062H423.266V178.766ZM442.125 182.297C442.125 186.526 443.099 188.641 445.047 188.641C446.203 188.641 446.781 188.146 446.781 187.156C446.781 186.198 446.24 184.771 445.156 182.875L448.203 181.047C449.786 183.62 450.578 185.677 450.578 187.219C450.578 188.865 450.177 190.188 449.375 191.188C448.51 192.271 447.271 192.812 445.656 192.812C443.656 192.812 442.13 192.021 441.078 190.438C440.193 192.135 438.839 192.984 437.016 192.984C436.234 192.984 435.474 192.755 434.734 192.297C433.995 191.828 433.432 191.245 433.047 190.547C432.13 192.172 430.672 192.984 428.672 192.984H427.766V188.812H428.359C429.078 188.812 429.589 188.698 429.891 188.469C430.339 188.125 430.562 187.438 430.562 186.406V182.234H434.25C434.25 184.411 434.406 185.964 434.719 186.891C435.115 188.057 435.844 188.641 436.906 188.641C437.49 188.641 437.948 188.359 438.281 187.797C438.562 187.318 438.703 186.766 438.703 186.141V182.297H442.125ZM480.938 181.594L479.297 184.531C477.911 183.917 477.083 183.609 476.812 183.609C475.198 183.609 473.807 184.443 472.641 186.109C472.578 186.203 472.542 186.323 472.531 186.469C472.521 186.625 472.557 186.719 472.641 186.75C473.13 186.958 473.833 187.094 474.75 187.156L477.516 187.359C478.578 187.432 479.422 187.76 480.047 188.344C480.714 188.958 481.047 189.786 481.047 190.828C481.047 192.766 479.974 194.573 477.828 196.25C475.37 198.177 472.26 199.141 468.5 199.141C465.448 199.141 463.193 198.188 461.734 196.281C460.568 194.75 459.984 192.75 459.984 190.281C459.984 188.938 460.292 187.344 460.906 185.5L464.219 186.484C463.854 188.036 463.672 189.193 463.672 189.953C463.672 192.047 464.255 193.479 465.422 194.25C466.182 194.75 467.333 195 468.875 195C470.365 195 471.896 194.755 473.469 194.266C475.677 193.578 476.974 192.594 477.359 191.312C473.839 191.198 471.62 190.958 470.703 190.594C469.526 190.125 468.938 189.047 468.938 187.359C468.938 185.505 469.865 183.786 471.719 182.203C473.406 180.755 475.016 180.031 476.547 180.031C478.036 180.031 479.5 180.552 480.938 181.594ZM487.359 192.984H483.672V173.719H487.359V192.984ZM501.828 190.984C501.745 191.339 501.417 192.005 500.844 192.984C499.688 194.964 496.068 197.677 489.984 201.125L488.125 197.766C489.615 196.953 490.99 196.146 492.25 195.344C495.177 193.469 497.026 191.891 497.797 190.609C498.068 190.161 498.203 189.625 498.203 189C498.203 188.49 498.104 188.026 497.906 187.609C497.615 186.818 496.964 185.479 495.953 183.594L499.312 181.578L501.422 185.719C501.911 186.688 502.333 187.344 502.688 187.688C503.448 188.438 504.536 188.812 505.953 188.812H506.875V192.984H505.969C504.24 192.984 502.859 192.318 501.828 190.984ZM512.047 199.453V195.766H508.359V199.453H512.047ZM505.984 188.812H508.781C509.667 188.812 510.109 188.479 510.109 187.812C510.109 187.552 510.026 187.271 509.859 186.969L508.062 183.75L511.391 181.547C513.151 184.474 514.031 186.589 514.031 187.891C514.031 191.286 512.552 192.984 509.594 192.984H505.984V188.812ZM545.562 192.984H544.516C544.516 194.026 544.344 194.911 544 195.641C543.094 197.547 541.354 199.042 538.781 200.125C536.594 201.042 534.302 201.5 531.906 201.5C526.271 201.5 523.453 198.5 523.453 192.5C523.453 191.135 523.781 189.542 524.438 187.719L527.688 188.75C527.323 189.969 527.141 191.13 527.141 192.234C527.141 195.703 528.911 197.438 532.453 197.438C536.307 197.438 538.953 196.594 540.391 194.906C540.516 194.76 540.578 194.604 540.578 194.438C540.578 194.219 540.443 194.062 540.172 193.969C539.286 193.646 537.062 193.068 533.5 192.234L534.469 188.812H545.562V192.984ZM552.969 199.203V195.875H549.672V199.203H552.969ZM548.516 199.203V195.875H545.219V199.203H548.516ZM544.672 188.812H547.469C548.354 188.812 548.797 188.479 548.797 187.812C548.797 187.552 548.714 187.271 548.547 186.969L546.75 183.75L550.078 181.547C551.839 184.474 552.719 186.589 552.719 187.891C552.719 191.286 551.24 192.984 548.281 192.984H544.672V188.812ZM563.594 192.984H560.359C558.714 192.984 557.474 192.255 556.641 190.797C555.974 189.63 555.641 188.151 555.641 186.359V173.703H559.328V185.047C559.328 186.286 559.464 187.167 559.734 187.688C560.12 188.438 560.87 188.812 561.984 188.812H563.594V192.984ZM569.438 199.516H565.75V195.812H569.438V199.516ZM578.562 190.109L576.453 192.984H562.703V188.812H572.172L568.312 185C567.76 184.458 567.125 184.188 566.406 184.188H563.906V180.391H567.125C568.281 180.391 569.24 180.771 570 181.531L578.562 190.109ZM593.789 193H589.68V188.922H593.789V193ZM593.961 178.688C592.836 178.906 592.102 179.458 591.758 180.344C591.57 180.823 591.477 181.594 591.477 182.656H593.789V186.625H589.68V183.203C589.68 179.964 591.107 178.229 593.961 178V178.688Z" fill="#090814"/>
<path d="M632.461 188.148C632.461 189.539 632.008 190.695 631.102 191.617C630.195 192.523 629.055 192.977 627.68 192.977H613.289C611.867 192.977 610.703 192.547 609.797 191.688C608.906 190.812 608.461 189.672 608.461 188.266V179.547C608.461 178.156 608.914 177.016 609.82 176.125C610.727 175.219 611.875 174.766 613.266 174.766H627.68C629.039 174.766 630.172 175.227 631.078 176.148C632 177.055 632.461 178.188 632.461 179.547V188.148ZM622.875 186.273V181.469H618.07V186.273H622.875ZM659.766 192.977H659.039V186.273H659.766V192.977ZM659.039 188.172C659.039 189.312 658.641 190.359 657.844 191.312C656.906 192.422 655.703 192.977 654.234 192.977H636.773V186.273H649.43V181.469H639.656V174.766H654.234C655.641 174.766 656.789 175.211 657.68 176.102C658.586 176.992 659.039 178.141 659.039 179.547V188.172ZM693.422 192.977H692.672V186.273H693.422V192.977ZM694.617 169.961H673.477V174.766H687.867C689.273 174.766 690.422 175.219 691.312 176.125C692.219 177.016 692.672 178.156 692.672 179.547V188.219C692.672 189.562 692.203 190.695 691.266 191.617C690.344 192.539 689.211 193 687.867 193H658.359V186.273H683.062V181.469H663.867V168.016C663.867 166.672 664.328 165.539 665.25 164.617C666.188 163.695 667.328 163.234 668.672 163.234H694.617V169.961ZM707.109 188.195C707.109 189.539 706.648 190.672 705.727 191.594C704.805 192.516 703.672 192.977 702.328 192.977H691.945V186.273H697.523V174.766H707.109V188.195ZM705.07 199.633C705.07 200.695 704.695 201.602 703.945 202.352C703.195 203.102 702.289 203.477 701.227 203.477C700.164 203.477 699.258 203.102 698.508 202.352C697.758 201.602 697.383 200.695 697.383 199.633C697.383 198.586 697.758 197.68 698.508 196.914C699.273 196.164 700.18 195.789 701.227 195.789C702.289 195.789 703.195 196.164 703.945 196.914C704.695 197.664 705.07 198.57 705.07 199.633ZM721.055 192.977H716.25C714.906 192.977 713.766 192.516 712.828 191.594C711.906 190.672 711.445 189.539 711.445 188.195V156.555H721.055V192.977ZM721.805 192.977H721.055V186.273H721.805V192.977ZM741.023 192.977H740.273V186.273H741.023V192.977ZM740.273 188.195C740.273 189.539 739.805 190.672 738.867 191.594C737.945 192.516 736.812 192.977 735.469 192.977H720.305V186.273H730.688V174.766H740.273V188.195ZM743.18 166.141C743.18 165.078 742.805 164.172 742.055 163.422C741.305 162.672 740.398 162.297 739.336 162.297C738.273 162.297 737.367 162.672 736.617 163.422C735.867 164.172 735.492 165.078 735.492 166.141C735.492 167.188 735.867 168.094 736.617 168.859C737.383 169.609 738.289 169.984 739.336 169.984C740.398 169.984 741.305 169.609 742.055 168.859C742.805 168.109 743.18 167.203 743.18 166.141ZM735.469 166.141C735.469 165.078 735.094 164.172 734.344 163.422C733.594 162.672 732.688 162.297 731.625 162.297C730.562 162.297 729.656 162.672 728.906 163.422C728.156 164.172 727.781 165.078 727.781 166.141C727.781 167.188 728.156 168.094 728.906 168.859C729.672 169.609 730.578 169.984 731.625 169.984C732.688 169.984 733.594 169.609 734.344 168.859C735.094 168.109 735.469 167.203 735.469 166.141ZM775.805 169.961H754.664V174.766H769.055C770.461 174.766 771.609 175.219 772.5 176.125C773.406 177.016 773.859 178.156 773.859 179.547V188.219C773.859 189.562 773.391 190.695 772.453 191.617C771.531 192.539 770.398 193 769.055 193H739.547V186.273H764.25V181.469H745.055V168.016C745.055 166.672 745.516 165.539 746.438 164.617C747.375 163.695 748.516 163.234 749.859 163.234H775.805V169.961Z" fill="#7B2CBF"/>
<path d="M410.097 330.023L410.068 327.949H410.409L415.182 323.091H417.256L412.17 328.233H412.028L410.097 330.023ZM408.534 334V319.455H410.21V334H408.534ZM415.466 334L411.205 328.602L412.398 327.438L417.597 334H415.466ZM423.538 334.227C422.487 334.227 421.58 333.995 420.817 333.531C420.06 333.062 419.475 332.409 419.063 331.571C418.656 330.728 418.452 329.748 418.452 328.631C418.452 327.513 418.656 326.528 419.063 325.676C419.475 324.819 420.048 324.152 420.782 323.673C421.521 323.19 422.382 322.949 423.367 322.949C423.935 322.949 424.496 323.044 425.05 323.233C425.604 323.422 426.109 323.73 426.563 324.156C427.018 324.578 427.38 325.136 427.65 325.832C427.92 326.528 428.055 327.385 428.055 328.403V329.114H419.646V327.665H426.35C426.35 327.049 426.227 326.5 425.981 326.017C425.739 325.534 425.394 325.153 424.944 324.874C424.499 324.594 423.973 324.455 423.367 324.455C422.7 324.455 422.122 324.62 421.634 324.952C421.151 325.278 420.78 325.705 420.519 326.23C420.259 326.756 420.129 327.319 420.129 327.92V328.886C420.129 329.71 420.271 330.409 420.555 330.982C420.844 331.55 421.244 331.983 421.755 332.281C422.266 332.575 422.861 332.722 423.538 332.722C423.978 332.722 424.376 332.66 424.731 332.537C425.091 332.409 425.401 332.22 425.661 331.969C425.922 331.713 426.123 331.396 426.265 331.017L427.884 331.472C427.714 332.021 427.427 332.504 427.025 332.92C426.622 333.332 426.125 333.654 425.533 333.886C424.942 334.114 424.276 334.227 423.538 334.227ZM435.349 323.091V324.511H429.695V323.091H435.349ZM431.343 320.477H433.019V330.875C433.019 331.348 433.088 331.704 433.225 331.94C433.367 332.172 433.547 332.329 433.765 332.409C433.987 332.485 434.222 332.523 434.468 332.523C434.653 332.523 434.804 332.513 434.923 332.494C435.041 332.471 435.136 332.452 435.207 332.438L435.548 333.943C435.434 333.986 435.275 334.028 435.072 334.071C434.868 334.118 434.61 334.142 434.298 334.142C433.824 334.142 433.36 334.04 432.906 333.837C432.456 333.633 432.082 333.323 431.783 332.906C431.49 332.49 431.343 331.964 431.343 331.33V320.477ZM441.08 334.256C440.389 334.256 439.762 334.125 439.198 333.865C438.635 333.6 438.187 333.219 437.856 332.722C437.524 332.22 437.359 331.614 437.359 330.903C437.359 330.278 437.482 329.772 437.728 329.384C437.974 328.991 438.303 328.683 438.715 328.46C439.127 328.238 439.582 328.072 440.079 327.963C440.581 327.849 441.085 327.759 441.592 327.693C442.254 327.608 442.792 327.544 443.204 327.501C443.621 327.454 443.924 327.376 444.113 327.267C444.307 327.158 444.404 326.969 444.404 326.699V326.642C444.404 325.941 444.212 325.397 443.829 325.009C443.45 324.62 442.875 324.426 442.103 324.426C441.303 324.426 440.675 324.601 440.221 324.952C439.766 325.302 439.447 325.676 439.262 326.074L437.671 325.506C437.955 324.843 438.334 324.327 438.808 323.957C439.286 323.583 439.807 323.323 440.37 323.176C440.938 323.025 441.497 322.949 442.046 322.949C442.397 322.949 442.799 322.991 443.254 323.077C443.713 323.157 444.156 323.325 444.582 323.581C445.013 323.837 445.37 324.223 445.654 324.739C445.938 325.255 446.08 325.946 446.08 326.812V334H444.404V332.523H444.319C444.205 332.759 444.016 333.013 443.751 333.283C443.486 333.553 443.133 333.782 442.692 333.972C442.252 334.161 441.715 334.256 441.08 334.256ZM441.336 332.75C441.999 332.75 442.558 332.62 443.012 332.359C443.471 332.099 443.817 331.763 444.049 331.351C444.286 330.939 444.404 330.506 444.404 330.051V328.517C444.333 328.602 444.177 328.68 443.935 328.751C443.699 328.818 443.424 328.877 443.112 328.929C442.804 328.976 442.503 329.019 442.21 329.057C441.921 329.09 441.686 329.118 441.506 329.142C441.071 329.199 440.664 329.291 440.285 329.419C439.911 329.542 439.608 329.729 439.376 329.98C439.148 330.226 439.035 330.562 439.035 330.989C439.035 331.571 439.25 332.011 439.681 332.31C440.117 332.603 440.668 332.75 441.336 332.75ZM449.367 334V319.455H451.043V324.824H451.185C451.308 324.634 451.479 324.393 451.696 324.099C451.919 323.801 452.236 323.536 452.648 323.304C453.065 323.067 453.628 322.949 454.338 322.949C455.257 322.949 456.067 323.179 456.767 323.638C457.468 324.097 458.015 324.748 458.408 325.591C458.801 326.434 458.998 327.428 458.998 328.574C458.998 329.729 458.801 330.731 458.408 331.578C458.015 332.421 457.471 333.074 456.775 333.538C456.078 333.998 455.276 334.227 454.367 334.227C453.666 334.227 453.105 334.111 452.684 333.879C452.262 333.643 451.938 333.375 451.711 333.077C451.483 332.774 451.308 332.523 451.185 332.324H450.986V334H449.367ZM451.015 328.545C451.015 329.369 451.135 330.096 451.377 330.726C451.618 331.351 451.971 331.841 452.435 332.196C452.899 332.546 453.467 332.722 454.14 332.722C454.84 332.722 455.425 332.537 455.894 332.168C456.367 331.794 456.722 331.292 456.959 330.662C457.201 330.027 457.321 329.322 457.321 328.545C457.321 327.778 457.203 327.087 456.966 326.472C456.734 325.851 456.382 325.361 455.908 325.001C455.439 324.637 454.85 324.455 454.14 324.455C453.458 324.455 452.885 324.627 452.421 324.973C451.957 325.314 451.606 325.792 451.37 326.408C451.133 327.018 451.015 327.731 451.015 328.545ZM463.124 330.023L463.096 327.949H463.436L468.209 323.091H470.283L465.198 328.233H465.056L463.124 330.023ZM461.561 334V319.455H463.238V334H461.561ZM468.493 334L464.232 328.602L465.425 327.438L470.624 334H468.493ZM475.651 334.256C474.959 334.256 474.332 334.125 473.768 333.865C473.205 333.6 472.758 333.219 472.426 332.722C472.095 332.22 471.929 331.614 471.929 330.903C471.929 330.278 472.052 329.772 472.298 329.384C472.545 328.991 472.874 328.683 473.286 328.46C473.697 328.238 474.152 328.072 474.649 327.963C475.151 327.849 475.655 327.759 476.162 327.693C476.825 327.608 477.362 327.544 477.774 327.501C478.191 327.454 478.494 327.376 478.683 327.267C478.877 327.158 478.974 326.969 478.974 326.699V326.642C478.974 325.941 478.783 325.397 478.399 325.009C478.02 324.62 477.445 324.426 476.673 324.426C475.873 324.426 475.246 324.601 474.791 324.952C474.337 325.302 474.017 325.676 473.832 326.074L472.241 325.506C472.526 324.843 472.904 324.327 473.378 323.957C473.856 323.583 474.377 323.323 474.94 323.176C475.509 323.025 476.067 322.949 476.616 322.949C476.967 322.949 477.369 322.991 477.824 323.077C478.283 323.157 478.726 323.325 479.152 323.581C479.583 323.837 479.94 324.223 480.224 324.739C480.509 325.255 480.651 325.946 480.651 326.812V334H478.974V332.523H478.889C478.776 332.759 478.586 333.013 478.321 333.283C478.056 333.553 477.703 333.782 477.263 333.972C476.822 334.161 476.285 334.256 475.651 334.256ZM475.906 332.75C476.569 332.75 477.128 332.62 477.582 332.359C478.042 332.099 478.387 331.763 478.619 331.351C478.856 330.939 478.974 330.506 478.974 330.051V328.517C478.903 328.602 478.747 328.68 478.506 328.751C478.269 328.818 477.994 328.877 477.682 328.929C477.374 328.976 477.073 329.019 476.78 329.057C476.491 329.09 476.257 329.118 476.077 329.142C475.641 329.199 475.234 329.291 474.855 329.419C474.481 329.542 474.178 329.729 473.946 329.98C473.719 330.226 473.605 330.562 473.605 330.989C473.605 331.571 473.821 332.011 474.251 332.31C474.687 332.603 475.239 332.75 475.906 332.75ZM487.829 334.227C486.92 334.227 486.118 333.998 485.422 333.538C484.725 333.074 484.181 332.421 483.788 331.578C483.395 330.731 483.199 329.729 483.199 328.574C483.199 327.428 483.395 326.434 483.788 325.591C484.181 324.748 484.728 324.097 485.429 323.638C486.129 323.179 486.939 322.949 487.858 322.949C488.568 322.949 489.129 323.067 489.541 323.304C489.958 323.536 490.275 323.801 490.493 324.099C490.715 324.393 490.888 324.634 491.011 324.824H491.153V319.455H492.829V334H491.21V332.324H491.011C490.888 332.523 490.713 332.774 490.485 333.077C490.258 333.375 489.934 333.643 489.512 333.879C489.091 334.111 488.53 334.227 487.829 334.227ZM488.056 332.722C488.729 332.722 489.297 332.546 489.761 332.196C490.225 331.841 490.578 331.351 490.819 330.726C491.061 330.096 491.181 329.369 491.181 328.545C491.181 327.731 491.063 327.018 490.826 326.408C490.59 325.792 490.239 325.314 489.775 324.973C489.311 324.627 488.738 324.455 488.056 324.455C487.346 324.455 486.754 324.637 486.281 325.001C485.812 325.361 485.459 325.851 485.223 326.472C484.991 327.087 484.875 327.778 484.875 328.545C484.875 329.322 484.993 330.027 485.23 330.662C485.471 331.292 485.826 331.794 486.295 332.168C486.769 332.537 487.356 332.722 488.056 332.722ZM500.706 334.227C499.654 334.227 498.748 333.995 497.985 333.531C497.228 333.062 496.643 332.409 496.231 331.571C495.824 330.728 495.62 329.748 495.62 328.631C495.62 327.513 495.824 326.528 496.231 325.676C496.643 324.819 497.216 324.152 497.95 323.673C498.689 323.19 499.55 322.949 500.535 322.949C501.103 322.949 501.664 323.044 502.218 323.233C502.772 323.422 503.277 323.73 503.731 324.156C504.186 324.578 504.548 325.136 504.818 325.832C505.088 326.528 505.223 327.385 505.223 328.403V329.114H496.814V327.665H503.518C503.518 327.049 503.395 326.5 503.149 326.017C502.907 325.534 502.562 325.153 502.112 324.874C501.667 324.594 501.141 324.455 500.535 324.455C499.868 324.455 499.29 324.62 498.802 324.952C498.319 325.278 497.948 325.705 497.687 326.23C497.427 326.756 497.297 327.319 497.297 327.92V328.886C497.297 329.71 497.439 330.409 497.723 330.982C498.011 331.55 498.412 331.983 498.923 332.281C499.434 332.575 500.029 332.722 500.706 332.722C501.146 332.722 501.544 332.66 501.899 332.537C502.259 332.409 502.569 332.22 502.829 331.969C503.09 331.713 503.291 331.396 503.433 331.017L505.052 331.472C504.882 332.021 504.595 332.504 504.193 332.92C503.79 333.332 503.293 333.654 502.701 333.886C502.109 334.114 501.444 334.227 500.706 334.227ZM509.449 327.438V334H507.772V319.455H509.449V324.795H509.591C509.846 324.232 510.23 323.785 510.741 323.453C511.257 323.117 511.944 322.949 512.801 322.949C513.544 322.949 514.195 323.098 514.754 323.396C515.313 323.69 515.746 324.142 516.054 324.753C516.366 325.359 516.522 326.131 516.522 327.068V334H514.846V327.182C514.846 326.315 514.621 325.645 514.172 325.172C513.726 324.694 513.109 324.455 512.318 324.455C511.769 324.455 511.276 324.571 510.841 324.803C510.41 325.035 510.069 325.373 509.818 325.818C509.572 326.263 509.449 326.803 509.449 327.438ZM520.81 334.114C520.46 334.114 520.159 333.988 519.908 333.737C519.657 333.486 519.532 333.186 519.532 332.835C519.532 332.485 519.657 332.184 519.908 331.933C520.159 331.682 520.46 331.557 520.81 331.557C521.161 331.557 521.461 331.682 521.712 331.933C521.963 332.184 522.089 332.485 522.089 332.835C522.089 333.067 522.03 333.28 521.911 333.474C521.798 333.669 521.644 333.825 521.45 333.943C521.26 334.057 521.047 334.114 520.81 334.114ZM529.528 334.227C528.506 334.227 527.625 333.986 526.886 333.503C526.148 333.02 525.58 332.355 525.182 331.507C524.784 330.66 524.585 329.691 524.585 328.602C524.585 327.494 524.789 326.517 525.196 325.669C525.608 324.817 526.181 324.152 526.915 323.673C527.653 323.19 528.515 322.949 529.5 322.949C530.267 322.949 530.958 323.091 531.574 323.375C532.189 323.659 532.694 324.057 533.087 324.568C533.48 325.08 533.723 325.676 533.818 326.358H532.142C532.014 325.861 531.73 325.42 531.29 325.037C530.854 324.649 530.267 324.455 529.528 324.455C528.875 324.455 528.302 324.625 527.81 324.966C527.322 325.302 526.941 325.778 526.666 326.393C526.396 327.004 526.261 327.722 526.261 328.545C526.261 329.388 526.394 330.122 526.659 330.747C526.929 331.372 527.308 331.857 527.795 332.203C528.288 332.549 528.866 332.722 529.528 332.722C529.964 332.722 530.359 332.646 530.714 332.494C531.07 332.343 531.37 332.125 531.616 331.841C531.863 331.557 532.038 331.216 532.142 330.818H533.818C533.723 331.462 533.489 332.042 533.115 332.558C532.746 333.07 532.256 333.477 531.645 333.78C531.039 334.078 530.333 334.227 529.528 334.227ZM540.7 334.227C539.715 334.227 538.851 333.993 538.108 333.524C537.369 333.055 536.792 332.4 536.375 331.557C535.963 330.714 535.757 329.729 535.757 328.602C535.757 327.466 535.963 326.474 536.375 325.626C536.792 324.779 537.369 324.121 538.108 323.652C538.851 323.183 539.715 322.949 540.7 322.949C541.685 322.949 542.547 323.183 543.286 323.652C544.029 324.121 544.607 324.779 545.018 325.626C545.435 326.474 545.643 327.466 545.643 328.602C545.643 329.729 545.435 330.714 545.018 331.557C544.607 332.4 544.029 333.055 543.286 333.524C542.547 333.993 541.685 334.227 540.7 334.227ZM540.7 332.722C541.448 332.722 542.064 332.53 542.547 332.146C543.03 331.763 543.387 331.259 543.619 330.634C543.851 330.009 543.967 329.331 543.967 328.602C543.967 327.873 543.851 327.194 543.619 326.564C543.387 325.934 543.03 325.425 542.547 325.037C542.064 324.649 541.448 324.455 540.7 324.455C539.952 324.455 539.337 324.649 538.854 325.037C538.371 325.425 538.013 325.934 537.781 326.564C537.549 327.194 537.433 327.873 537.433 328.602C537.433 329.331 537.549 330.009 537.781 330.634C538.013 331.259 538.371 331.763 538.854 332.146C539.337 332.53 539.952 332.722 540.7 332.722ZM548.202 334V323.091H549.821V324.795H549.963C550.191 324.213 550.558 323.761 551.064 323.439C551.571 323.112 552.179 322.949 552.89 322.949C553.609 322.949 554.208 323.112 554.686 323.439C555.169 323.761 555.546 324.213 555.816 324.795H555.929C556.209 324.232 556.628 323.785 557.186 323.453C557.745 323.117 558.415 322.949 559.196 322.949C560.172 322.949 560.97 323.254 561.59 323.865C562.21 324.471 562.52 325.416 562.52 326.699V334H560.844V326.699C560.844 325.894 560.624 325.319 560.184 324.973C559.743 324.627 559.225 324.455 558.628 324.455C557.861 324.455 557.267 324.687 556.846 325.151C556.424 325.61 556.213 326.192 556.213 326.898V334H554.509V326.528C554.509 325.908 554.308 325.409 553.905 325.03C553.503 324.646 552.984 324.455 552.35 324.455C551.914 324.455 551.507 324.571 551.128 324.803C550.754 325.035 550.451 325.357 550.219 325.768C549.992 326.176 549.878 326.647 549.878 327.182V334H548.202Z" fill="#CD94FF"/>
<defs>
<clipPath id="clip0_42_430">
<rect width="380" height="295" fill="white" transform="translate(926 22)"/>
</clipPath>
</defs>
</svg>
