<svg width="482" height="445" viewBox="0 0 482 445" fill="none" xmlns="http://www.w3.org/2000/svg">
<path fill-rule="evenodd" clip-rule="evenodd" d="M275.583 19.4453C327.322 26.0737 326.942 90.6553 368.797 114.939C399.921 132.996 469.964 109.328 480.299 138.218C493.52 175.181 425.612 182.365 416.673 229.325C412.252 252.55 452.145 262.737 452.145 295.075C452.145 327.414 384.737 374.839 359.048 396.743C308.689 439.681 253.271 444.5 207.5 444.5C161.729 444.5 107 422.457 107 379.5C107 336.543 151.481 316.424 152.586 285.179C153.32 264.374 114.521 254.261 107.528 234.153C99.346 210.629 100.377 185.3 109.758 162.04C126.516 120.491 210.978 11.1685 275.583 19.4453Z" fill="#FCEAD4"/>
<g clip-path="url(#clip0_62_203)">
<path d="M376.652 243H227.347C223.808 242.996 220.415 241.59 217.913 239.09C215.411 236.59 214.003 233.2 214 229.664V13.3357C214.003 9.79999 215.411 6.41012 217.913 3.90998C220.415 1.40984 223.808 0.00365884 227.347 0H376.652C380.191 0.00365884 383.584 1.40984 386.086 3.90998C388.589 6.41012 389.996 9.79999 390 13.3357V229.664C389.996 233.2 388.589 236.59 386.086 239.09C383.584 241.59 380.191 242.996 376.652 243Z" fill="#090814"/>
<path d="M376.914 234.491H227.085C225.994 234.49 224.948 234.057 224.177 233.286C223.405 232.515 222.971 231.471 222.97 230.381V12.619C222.971 11.5292 223.405 10.4843 224.177 9.71369C224.948 8.94305 225.994 8.50957 227.085 8.50832H376.914C378.005 8.50903 379.051 8.94229 379.823 9.71298C380.595 10.4837 381.029 11.5288 381.03 12.619V230.381C381.029 231.471 380.595 232.516 379.823 233.287C379.051 234.057 378.005 234.491 376.914 234.491Z" fill="white"/>
<path d="M301.432 5.21845C302.059 5.21845 302.568 4.71058 302.568 4.08408C302.568 3.45758 302.059 2.94971 301.432 2.94971C300.805 2.94971 300.297 3.45758 300.297 4.08408C300.297 4.71058 300.805 5.21845 301.432 5.21845Z" fill="white"/>
<path d="M342.792 44.7772C345.152 44.2977 347.244 42.947 348.652 40.9945C348.792 40.801 349.085 41.0282 348.946 41.2204C347.477 43.2497 345.296 44.6509 342.838 45.1444C342.605 45.1912 342.558 44.8241 342.792 44.7772Z" fill="white"/>
<path d="M361.868 97.127L353.997 55.0244C353.863 54.3303 353.496 53.7026 352.957 53.2441C352.419 52.7856 351.74 52.5235 351.033 52.5008C350.969 52.4994 350.906 52.4994 350.842 52.5008L345.481 52.6929L344.904 52.7142L342.228 52.8102L341.651 52.8301L339.93 52.8922L305.223 54.1371C305.17 54.1398 305.117 54.1398 305.064 54.1371L297.287 53.9746L294.409 53.9153H294.317L292.191 53.8701L273.681 53.4858L268.774 53.3826L266.354 53.3331L265.774 53.3203L263.015 53.2636L262.437 53.2508L259.614 53.1929L259.036 53.18L255.934 53.115L255.448 53.1052L252.681 53.0472L252.242 53.0388H252.178C251.444 53.0417 250.735 53.3038 250.175 53.7788C249.616 54.2538 249.242 54.9111 249.121 55.6345L242.001 99.3239C241.929 99.7665 241.954 100.22 242.074 100.652C242.195 101.084 242.408 101.484 242.698 101.826C242.989 102.168 243.351 102.442 243.758 102.63C244.165 102.818 244.609 102.916 245.058 102.916H285.942C286.544 102.918 287.129 103.111 287.614 103.467L288.39 104.04C288.924 104.433 289.569 104.645 290.232 104.647H314.324C314.731 104.648 315.134 104.568 315.51 104.413C315.886 104.257 316.227 104.028 316.514 103.74C317.005 103.25 317.66 102.958 318.353 102.922L358.987 100.782C359.428 100.759 359.858 100.642 360.25 100.44C360.642 100.237 360.986 99.9527 361.259 99.6063C361.532 99.2599 361.727 98.8592 361.833 98.4311C361.938 98.0029 361.95 97.5573 361.869 97.124L361.868 97.127Z" fill="#CCCCCC"/>
<path d="M355.427 95.9822L351.041 52.5574C351.041 52.5392 351.036 52.5193 351.034 52.5008C350.952 51.807 350.609 51.1702 350.075 50.7191L340.637 42.8645C340.227 42.5203 339.717 42.3167 339.182 42.2837C334.863 42.0065 312.914 40.9807 304.812 48.0074C304.566 48.2211 304.276 48.3784 303.963 48.4682C303.65 48.558 303.32 48.5782 302.999 48.5273C302.676 48.475 302.368 48.3537 302.097 48.1718C301.826 47.9899 301.597 47.7515 301.426 47.4731C300.737 46.4003 299.834 45.4807 298.774 44.7715C298.298 44.4413 297.802 44.1407 297.29 43.8714C296.836 43.6328 296.342 43.3995 295.805 43.1777C295.342 42.9855 294.849 42.8004 294.32 42.6238C291.578 41.7082 287.912 41.0242 283.013 40.7953C280.981 40.6992 278.772 40.6864 276.448 40.7559C274.327 40.8179 272.072 40.9467 269.749 41.1388H269.715L253.991 50.7286C253.639 50.9482 253.341 51.2449 253.12 51.5965C252.9 51.948 252.762 52.3451 252.717 52.7576L252.684 53.0459L247.69 97.6118C247.647 97.9904 247.682 98.3739 247.792 98.7386C247.903 99.1033 248.087 99.4415 248.333 99.7325C248.573 100.016 248.872 100.245 249.208 100.402C249.545 100.559 249.912 100.641 250.284 100.643H289.025C289.541 100.645 290.04 100.822 290.442 101.144L292.134 102.498C292.575 102.852 293.121 103.049 293.686 103.06L310.719 103.339H310.761C311.191 103.338 311.613 103.228 311.989 103.019L315.275 101.197C315.575 101.03 315.908 100.933 316.251 100.914L352.965 98.977C353.323 98.958 353.672 98.8638 353.991 98.7007C354.31 98.5376 354.591 98.3093 354.816 98.0304C355.05 97.7466 355.224 97.4191 355.33 97.067C355.435 96.715 355.469 96.3455 355.43 95.9801L355.427 95.9822Z" fill="#E6E6E6"/>
<path d="M342.612 88.1511L342.098 81.3921L339.93 52.8932L339.608 48.6773C339.526 47.5699 339.035 46.5326 338.23 45.7675C337.425 45.0024 336.363 44.5642 335.252 44.5386C327.308 44.3363 312.923 44.6933 305.863 49.4189C305.078 49.952 304.126 50.1818 303.183 50.0656C302.241 49.9494 301.373 49.4951 300.742 48.7872C299.765 47.7159 298.592 46.841 297.287 46.2096C296.331 45.7309 295.338 45.3316 294.317 45.0156C291.329 44.062 287.559 43.4826 283.006 43.2775L272.201 43.2144H272.182C271.434 43.2155 270.714 43.501 270.169 44.0131C269.624 44.5251 269.294 45.2252 269.247 45.9713L268.778 53.3823L266.728 85.8834C266.69 86.4888 266.775 87.0957 266.979 87.6673C267.182 88.2388 267.5 88.7631 267.912 89.2082C268.325 89.6534 268.824 90.0101 269.379 90.2568C269.933 90.5035 270.532 90.635 271.14 90.6434C289.277 90.9131 297.201 94.7369 300.656 97.8956C301.39 98.569 302.329 98.9783 303.322 99.0588C304.316 99.1393 305.308 98.8863 306.142 98.3399C312.414 94.2359 322.84 93.0948 331.138 92.9175C333.68 92.8646 336.021 92.8993 337.983 92.9684C338.614 92.9911 339.242 92.8805 339.827 92.6438C340.412 92.4071 340.94 92.0498 341.377 91.595C341.814 91.1403 342.15 90.5985 342.363 90.0051C342.576 89.4117 342.661 88.78 342.613 88.1515L342.612 88.1511Z" fill="white"/>
<path d="M252.57 97.578H252.55C252.473 97.5726 252.402 97.5371 252.352 97.4793C252.302 97.4215 252.277 97.3462 252.282 97.2699L255.403 53.2454C255.405 53.2075 255.415 53.1704 255.432 53.1363C255.448 53.1022 255.472 53.0718 255.501 53.0469C255.529 53.022 255.563 53.0031 255.599 52.9913C255.635 52.9795 255.673 52.975 255.711 52.9781C255.787 52.9835 255.859 53.0191 255.909 53.0768C255.959 53.1346 255.984 53.2099 255.979 53.2862L252.858 97.3107C252.853 97.3834 252.82 97.4513 252.767 97.5009C252.713 97.5505 252.643 97.5781 252.57 97.578Z" fill="white"/>
<path d="M256.325 95.846H256.304C256.228 95.8405 256.157 95.805 256.107 95.7472C256.057 95.6895 256.031 95.6141 256.037 95.5378L259.158 51.5134C259.16 51.4754 259.17 51.4383 259.186 51.4042C259.203 51.3701 259.227 51.3398 259.255 51.3148C259.284 51.2899 259.318 51.271 259.354 51.2592C259.39 51.2474 259.428 51.2429 259.466 51.246C259.542 51.2515 259.613 51.287 259.664 51.3448C259.714 51.4025 259.739 51.4779 259.734 51.5542L256.613 95.5776C256.608 95.6504 256.575 95.7186 256.522 95.7684C256.468 95.8182 256.398 95.8459 256.325 95.846Z" fill="white"/>
<path d="M259.792 94.9803H259.771C259.733 94.9776 259.696 94.9675 259.662 94.9506C259.628 94.9337 259.598 94.9103 259.573 94.8816C259.548 94.853 259.529 94.8198 259.517 94.7839C259.505 94.7479 259.5 94.71 259.503 94.6721L262.624 50.6477C262.626 50.6097 262.636 50.5726 262.653 50.5385C262.67 50.5044 262.693 50.4741 262.722 50.4492C262.751 50.4243 262.784 50.4053 262.82 50.3935C262.856 50.3817 262.894 50.3772 262.932 50.3803C262.97 50.383 263.007 50.3931 263.041 50.41C263.075 50.4269 263.105 50.4503 263.13 50.479C263.155 50.5076 263.174 50.5408 263.186 50.5767C263.198 50.6127 263.203 50.6507 263.2 50.6885L260.079 94.7129C260.074 94.7856 260.041 94.8535 259.988 94.903C259.935 94.9526 259.865 94.9802 259.792 94.9803Z" fill="white"/>
<path d="M263.258 93.2485H263.238C263.2 93.2459 263.163 93.2358 263.129 93.2189C263.095 93.202 263.065 93.1785 263.04 93.1499C263.015 93.1213 262.996 93.0881 262.984 93.0521C262.972 93.0162 262.967 92.9782 262.97 92.9404L266.091 48.9159C266.093 48.878 266.103 48.8409 266.12 48.8068C266.136 48.7727 266.16 48.7423 266.189 48.7174C266.217 48.6925 266.251 48.6736 266.287 48.6618C266.323 48.65 266.361 48.6455 266.399 48.6486C266.437 48.6513 266.474 48.6613 266.508 48.6783C266.542 48.6952 266.572 48.7186 266.597 48.7472C266.622 48.7758 266.641 48.8091 266.653 48.845C266.665 48.881 266.67 48.9189 266.667 48.9567L263.546 92.9812C263.541 93.0538 263.508 93.1217 263.455 93.1713C263.401 93.2209 263.331 93.2485 263.258 93.2485Z" fill="white"/>
<path d="M351.944 97.8663H351.965C352.041 97.8608 352.112 97.8253 352.162 97.7675C352.213 97.7098 352.238 97.6344 352.232 97.5581L349.112 53.5337C349.109 53.4957 349.1 53.4586 349.083 53.4245C349.066 53.3904 349.043 53.3601 349.014 53.3352C348.985 53.3103 348.952 53.2913 348.915 53.2795C348.879 53.2677 348.841 53.2632 348.803 53.2663C348.765 53.269 348.728 53.2791 348.695 53.296C348.661 53.3129 348.63 53.3363 348.605 53.365C348.581 53.3936 348.562 53.4268 348.55 53.4627C348.538 53.4987 348.533 53.5367 348.535 53.5745L351.656 97.5989C351.661 97.672 351.693 97.7405 351.747 97.7905C351.8 97.8406 351.871 97.8685 351.944 97.8686L351.944 97.8663Z" fill="white"/>
<path d="M348.189 95.2692H348.209C348.247 95.2665 348.284 95.2564 348.318 95.2395C348.352 95.2226 348.382 95.1992 348.407 95.1705C348.432 95.1419 348.451 95.1087 348.463 95.0727C348.475 95.0368 348.479 94.9988 348.477 94.961L345.356 50.9366C345.354 50.8986 345.344 50.8615 345.327 50.8274C345.31 50.7933 345.287 50.763 345.258 50.7381C345.229 50.7131 345.196 50.6942 345.16 50.6824C345.124 50.6706 345.085 50.6661 345.048 50.6692C344.971 50.6747 344.9 50.7102 344.85 50.768C344.8 50.8257 344.775 50.9011 344.78 50.9774L347.901 95.0018C347.906 95.0745 347.939 95.1424 347.992 95.1919C348.046 95.2415 348.116 95.2691 348.189 95.2692Z" fill="white"/>
<path d="M344.723 92.3825H344.743C344.781 92.3799 344.818 92.3698 344.852 92.3529C344.886 92.3359 344.916 92.3125 344.941 92.2839C344.966 92.2553 344.985 92.222 344.997 92.1861C345.009 92.1501 345.013 92.1122 345.011 92.0744L341.89 48.0499C341.888 48.0119 341.878 47.9748 341.861 47.9406C341.845 47.9065 341.821 47.876 341.792 47.8511C341.764 47.8261 341.73 47.8072 341.694 47.7954C341.658 47.7835 341.62 47.7791 341.582 47.7823C341.544 47.7849 341.507 47.795 341.473 47.8119C341.439 47.8288 341.409 47.8523 341.384 47.8809C341.359 47.9095 341.34 47.9427 341.328 47.9786C341.316 48.0146 341.311 48.0526 341.314 48.0904L344.434 92.1148C344.439 92.1879 344.472 92.2565 344.525 92.3065C344.578 92.3566 344.649 92.3845 344.722 92.3845L344.723 92.3825Z" fill="white"/>
<path d="M273.828 53.1591C280.417 51.1091 287.536 51.608 293.773 54.5571C295.533 55.3871 297.196 56.41 298.73 57.607C299.163 57.9471 299.781 57.3373 299.342 56.9948C293.676 52.6041 286.557 50.5182 279.415 51.1564C277.439 51.333 275.489 51.7246 273.598 52.3241C273.068 52.4927 273.294 53.329 273.828 53.1591Z" fill="#3F3D56"/>
<path d="M309.659 57.9431C315.794 54.7858 322.892 54.0477 329.546 55.8752C331.422 56.3885 333.236 57.109 334.953 58.0233C335.445 58.2856 335.883 57.5382 335.391 57.2756C329.037 53.9475 321.659 53.1437 314.736 55.0254C312.825 55.5464 310.976 56.2741 309.223 57.1954C308.728 57.4546 309.166 58.2023 309.659 57.9431Z" fill="#3F3D56"/>
<path d="M309.659 63.7154C315.794 60.5581 322.892 59.82 329.546 61.6476C331.422 62.1609 333.236 62.8813 334.953 63.7956C335.445 64.0579 335.883 63.3105 335.391 63.0479C329.037 59.7199 321.659 58.9162 314.736 60.798C312.825 61.3191 310.977 62.0467 309.223 62.968C308.729 63.2272 309.167 63.975 309.662 63.7157L309.659 63.7154Z" fill="#3F3D56"/>
<path d="M335.602 69.1782C335.607 69.1039 335.589 69.0299 335.551 68.9658C335.513 68.9018 335.456 68.8507 335.389 68.8192C330.363 66.1899 324.664 65.1235 319.027 65.7573C318.993 65.76 318.959 65.7657 318.921 65.7687C318.886 65.7718 318.852 65.777 318.818 65.7842C315.465 66.1697 312.212 67.1713 309.223 68.7387C309.158 68.7775 309.104 68.8326 309.067 68.8985C309.03 68.9643 309.01 69.0388 309.01 69.1145V79.8828C309.011 79.949 309.027 80.014 309.058 80.0729C309.088 80.1319 309.131 80.1833 309.183 80.2232C309.236 80.2632 309.297 80.2907 309.362 80.3037C309.427 80.3166 309.494 80.3148 309.558 80.2981C309.691 80.2601 309.824 80.2233 309.96 80.1879C312.981 79.3709 316.083 78.8861 319.209 78.7424L319.412 78.734C321.959 78.6247 324.51 78.7163 327.042 79.008C327.095 79.0109 327.148 79.0166 327.2 79.0249C327.33 79.039 327.463 79.0545 327.593 79.0714C327.646 79.0771 327.694 79.0829 327.743 79.0913C328.249 79.155 328.751 79.2261 329.255 79.3047C329.982 79.4206 330.709 79.5496 331.436 79.6917C331.481 79.7001 331.528 79.7116 331.574 79.72C332.741 79.9516 333.903 80.2203 335.058 80.5169C335.122 80.5336 335.189 80.5354 335.254 80.5223C335.32 80.5091 335.381 80.4814 335.434 80.4411C335.487 80.4008 335.53 80.349 335.559 80.2897C335.589 80.2303 335.605 80.165 335.606 80.0986V69.1951C335.606 69.1892 335.605 69.1834 335.602 69.1782Z" fill="#D7B6EE"/>
<path d="M313.472 69.2234L313.355 69.308C313.395 69.2784 313.436 69.2507 313.478 69.2244L313.472 69.2234Z" fill="white"/>
<path d="M273.828 58.9315C280.417 56.8814 287.536 57.3804 293.773 60.3294C295.533 61.1594 297.196 62.1823 298.73 63.3793C299.163 63.7194 299.781 63.1096 299.342 62.7671C293.676 58.3764 286.557 56.2906 279.415 56.9287C277.439 57.1054 275.489 57.4969 273.598 58.0964C273.068 58.265 273.294 59.1014 273.828 58.9315Z" fill="#3F3D56"/>
<path d="M273.828 64.7038C280.417 62.6537 287.536 63.1527 293.773 66.1018C295.533 66.9318 297.196 67.9547 298.73 69.1516C299.163 69.4918 299.781 68.8819 299.342 68.5394C293.676 64.1487 286.557 62.0629 279.415 62.701C277.439 62.8777 275.489 63.2693 273.598 63.8688C273.068 64.0373 273.294 64.8737 273.828 64.7038Z" fill="#3F3D56"/>
<path d="M273.828 70.4765C280.417 68.4264 287.536 68.9254 293.773 71.8745C295.533 72.7044 297.196 73.7273 298.73 74.9243C299.163 75.2644 299.781 74.6546 299.342 74.3121C293.676 69.9215 286.557 67.8358 279.415 68.474C277.439 68.6507 275.489 69.0423 273.598 69.6418C273.068 69.8103 273.294 70.6467 273.828 70.4768V70.4765Z" fill="#3F3D56"/>
<path d="M273.828 76.2488C280.417 74.1987 287.536 74.6977 293.773 77.6468C295.533 78.4768 297.196 79.4997 298.73 80.6966C299.163 81.0367 299.781 80.4269 299.342 80.0844C293.676 75.6937 286.557 73.6079 279.415 74.246C277.439 74.4227 275.489 74.8143 273.598 75.4138C273.068 75.5823 273.294 76.4187 273.828 76.2488Z" fill="#3F3D56"/>
<path d="M273.828 82.0225C280.417 79.9724 287.536 80.4714 293.773 83.4204C295.533 84.2504 297.196 85.2733 298.73 86.4703C299.163 86.8104 299.781 86.2006 299.342 85.8581C293.676 81.4674 286.557 79.3815 279.415 80.0197C277.439 80.1964 275.489 80.5879 273.598 81.1874C273.068 81.356 273.294 82.1924 273.828 82.0225Z" fill="#3F3D56"/>
<path d="M297.288 43.8718V60.0503C297.288 60.3258 296.808 60.556 296.158 60.6184C296.045 60.6298 295.926 60.6352 295.803 60.6352C295.446 60.642 295.091 60.5841 294.754 60.4643C294.692 60.44 294.631 60.4112 294.573 60.378C294.412 60.2833 294.319 60.1717 294.319 60.0503V42.6241C294.848 42.8008 295.341 42.9859 295.803 43.178C296.341 43.4012 296.834 43.6331 297.288 43.8718Z" fill="#D7B6EE"/>
<path d="M303.513 49.4189H303.088V101.752H303.513V49.4189Z" fill="#E6E6E6"/>
<path d="M341.378 91.5927C340.94 92.0475 340.412 92.4051 339.827 92.6421C339.242 92.8791 338.613 92.9902 337.982 92.9681C336.02 92.8986 333.679 92.8642 331.137 92.9172L331.123 92.905L342.137 78.6413L342.612 88.1511C342.659 88.7791 342.574 89.4102 342.361 90.0031C342.149 90.596 341.814 91.1376 341.378 91.5927Z" fill="#F2F2F2"/>
<path d="M301.944 179.817C304.168 179.817 306.342 180.476 308.192 181.711C310.041 182.945 311.482 184.7 312.334 186.753C313.185 188.806 313.408 191.065 312.974 193.245C312.54 195.424 311.469 197.426 309.896 198.997C308.323 200.569 306.319 201.639 304.138 202.072C301.956 202.506 299.695 202.283 297.64 201.433C295.586 200.583 293.829 199.143 292.593 197.295C291.358 195.447 290.698 193.275 290.698 191.053C290.698 188.073 291.883 185.215 293.992 183.108C296.101 181.001 298.961 179.817 301.944 179.817Z" fill="#D7B6EE"/>
<path d="M298.43 186.059V196.046C298.43 196.157 298.459 196.266 298.516 196.362C298.572 196.457 298.653 196.537 298.75 196.591C298.847 196.645 298.956 196.672 299.068 196.67C299.179 196.668 299.287 196.636 299.382 196.578L307.503 191.584C307.594 191.529 307.669 191.45 307.722 191.357C307.774 191.264 307.801 191.159 307.801 191.053C307.801 190.946 307.774 190.841 307.722 190.748C307.669 190.655 307.594 190.577 307.503 190.521L299.382 185.527C299.287 185.469 299.179 185.437 299.068 185.435C298.956 185.433 298.847 185.46 298.75 185.514C298.653 185.568 298.572 185.647 298.516 185.743C298.459 185.839 298.43 185.948 298.43 186.059Z" fill="white"/>
<path d="M331.932 183.563C333.414 183.563 334.864 184.002 336.097 184.825C337.33 185.648 338.291 186.818 338.858 188.186C339.425 189.555 339.574 191.061 339.285 192.514C338.995 193.967 338.281 195.302 337.233 196.349C336.184 197.397 334.848 198.11 333.394 198.399C331.94 198.688 330.433 198.54 329.063 197.973C327.693 197.406 326.522 196.446 325.698 195.214C324.874 193.982 324.435 192.534 324.435 191.053C324.435 189.066 325.224 187.161 326.63 185.756C328.036 184.352 329.943 183.563 331.932 183.563Z" fill="#F2F2F2"/>
<path d="M332.992 194.12V187.927C332.992 187.763 333.057 187.606 333.173 187.489C333.29 187.373 333.447 187.308 333.612 187.308H333.688C333.852 187.308 334.01 187.373 334.126 187.489C334.242 187.606 334.308 187.763 334.308 187.927V194.12C334.308 194.284 334.242 194.442 334.126 194.558C334.01 194.674 333.852 194.739 333.688 194.739H333.612C333.447 194.739 333.29 194.674 333.173 194.558C333.057 194.442 332.992 194.284 332.992 194.12Z" fill="#3F3D56"/>
<path d="M329.815 194.781C329.74 194.757 329.674 194.71 329.627 194.646C329.58 194.582 329.555 194.505 329.555 194.426V187.689C329.555 187.609 329.58 187.532 329.627 187.468C329.674 187.403 329.74 187.356 329.816 187.333C329.892 187.309 329.974 187.31 330.049 187.337C330.124 187.363 330.189 187.413 330.233 187.478L332.482 190.744C332.554 190.849 332.592 190.972 332.591 191.099C332.59 191.225 332.551 191.349 332.478 191.452L330.231 194.641C330.197 194.69 330.152 194.73 330.099 194.757C330.046 194.785 329.987 194.799 329.928 194.799C329.889 194.799 329.851 194.793 329.815 194.782L329.815 194.781Z" fill="#3F3D56"/>
<path d="M271.956 183.563C270.473 183.563 269.023 184.002 267.79 184.825C266.558 185.648 265.597 186.818 265.029 188.186C264.462 189.555 264.313 191.061 264.603 192.514C264.892 193.967 265.606 195.302 266.654 196.349C267.703 197.397 269.039 198.11 270.493 198.399C271.947 198.688 273.455 198.54 274.825 197.973C276.194 197.406 277.365 196.446 278.189 195.214C279.013 193.982 279.453 192.534 279.453 191.053C279.453 189.066 278.663 187.161 277.257 185.756C275.851 184.352 273.944 183.563 271.956 183.563Z" fill="#F2F2F2"/>
<path d="M270.896 194.12V187.927C270.895 187.763 270.83 187.606 270.714 187.49C270.598 187.373 270.44 187.308 270.276 187.308H270.199C270.035 187.308 269.878 187.373 269.761 187.489C269.645 187.606 269.58 187.763 269.58 187.927V194.12C269.58 194.284 269.645 194.442 269.761 194.558C269.878 194.674 270.035 194.739 270.199 194.739H270.276C270.44 194.739 270.598 194.674 270.714 194.558C270.83 194.442 270.895 194.284 270.896 194.12Z" fill="#3F3D56"/>
<path d="M274.072 194.781C274.148 194.757 274.213 194.71 274.26 194.646C274.307 194.582 274.332 194.505 274.332 194.426V187.689C274.332 187.609 274.307 187.532 274.26 187.468C274.213 187.403 274.147 187.356 274.071 187.333C273.995 187.309 273.913 187.31 273.838 187.337C273.763 187.363 273.698 187.413 273.653 187.478L271.405 190.744C271.333 190.849 271.295 190.972 271.296 191.099C271.297 191.225 271.336 191.349 271.409 191.452L273.655 194.641C273.69 194.69 273.735 194.73 273.788 194.757C273.841 194.785 273.9 194.799 273.959 194.799C273.998 194.799 274.036 194.793 274.072 194.782V194.781Z" fill="#3F3D56"/>
<path d="M277.428 127.386H243.992C242.874 127.386 241.968 128.291 241.968 129.408V130.981C241.968 132.098 242.874 133.003 243.992 133.003H277.428C278.547 133.003 279.453 132.098 279.453 130.981V129.408C279.453 128.291 278.547 127.386 277.428 127.386Z" fill="#E6E6E6"/>
<path d="M307.417 136.748H243.992C242.874 136.748 241.968 137.654 241.968 138.771V140.343C241.968 141.46 242.874 142.366 243.992 142.366H307.417C308.535 142.366 309.441 141.46 309.441 140.343V138.771C309.441 137.654 308.535 136.748 307.417 136.748Z" fill="#E6E6E6"/>
<path d="M360.984 160.155H242.905C242.387 160.155 241.968 160.574 241.968 161.091V161.092C241.968 161.609 242.387 162.028 242.905 162.028H360.984C361.501 162.028 361.921 161.609 361.921 161.092V161.091C361.921 160.574 361.501 160.155 360.984 160.155Z" fill="#E6E6E6"/>
<path d="M319.281 160.155H242.905C242.387 160.155 241.968 160.574 241.968 161.091V161.092C241.968 161.609 242.387 162.028 242.905 162.028H319.281C319.799 162.028 320.218 161.609 320.218 161.092V161.091C320.218 160.574 319.799 160.155 319.281 160.155Z" fill="#D7B6EE"/>
<path d="M320.218 164.837C322.289 164.837 323.967 163.16 323.967 161.092C323.967 159.023 322.289 157.347 320.218 157.347C318.148 157.347 316.47 159.023 316.47 161.092C316.47 163.16 318.148 164.837 320.218 164.837Z" fill="#D7B6EE"/>
</g>
<g clip-path="url(#clip1_62_203)">
<path d="M27.7368 302.493C27.7418 302.508 27.7469 302.518 27.7519 302.533C27.7872 302.639 27.8225 302.735 27.8628 302.841V302.846C29.5815 307.682 31.4699 312.436 33.5279 317.11L422.244 316.686C424.331 311.917 426.246 307.059 427.99 302.114C427.995 302.103 427.999 302.091 428 302.079L27.7368 302.493Z" fill="#CCCCCC"/>
<path d="M173.702 228.842C173.392 230.135 172.802 231.344 171.975 232.384C171.148 233.424 170.103 234.27 168.915 234.862C167.726 235.454 166.422 235.778 165.095 235.811C163.767 235.843 162.449 235.584 161.232 235.052L139.324 258.783L135.311 242.476L156.731 222.44C157.76 220.452 159.481 218.912 161.569 218.111C163.656 217.31 165.964 217.303 168.056 218.092C170.148 218.881 171.878 220.412 172.918 222.393C173.959 224.374 174.238 226.669 173.702 228.842Z" fill="#FFB6B6"/>
<path d="M148.774 249.878L119.007 283.338L118.765 283.293C118.664 283.277 116.406 282.874 112.828 282.217C99.8846 279.845 69.6942 274.187 62.2045 271.567C57.8856 270.109 54.0099 267.571 50.9448 264.193C51.721 259.958 52.5526 256.788 53.3742 255.244C53.974 254.118 53.8631 252.649 53.8883 250.973C55.8538 249.614 58.1445 248.802 60.5261 248.621C75.4195 247.542 90.3597 249.942 104.169 255.632L112.021 258.883L112.344 258.646L138.865 239.152L139.047 239.021L148.169 249.202L148.774 249.878Z" fill="#7B2CBF"/>
<path d="M212 454C211.585 453.958 211.175 453.909 210.759 453.86C205.55 453.277 200.394 452.453 195.29 451.388L189.686 433.957L187 425.6L197.14 419.778L203.732 416L206.864 430.383L208.163 436.359L211.233 450.461L212 454Z" fill="#FFB6B6"/>
<path d="M101.982 385.037V402.633C104.931 404.813 107.938 406.917 111.004 408.942V385.037H101.982Z" fill="#CACACA"/>
<path d="M70.29 373.892C72.8253 376.709 75.436 379.453 78.1224 382.125C84.445 388.431 91.1584 394.331 98.2225 399.791H138.443C139.511 399.791 140.566 399.563 141.539 399.122C142.511 398.68 143.379 398.036 144.083 397.232L144.088 397.217C144.926 396.269 145.509 395.122 145.781 393.885L145.786 393.875C145.9 393.344 145.957 392.803 145.958 392.26V381.423C145.956 379.427 145.164 377.513 143.755 376.101C142.347 374.689 140.436 373.895 138.443 373.892H70.29Z" fill="#3F3D56"/>
<path d="M53.7183 331.594L58.078 350.3C57.6517 353.01 57.5098 355.758 57.6546 358.497C59.7211 361.273 61.8531 363.994 64.0505 366.659C66.0767 369.117 68.1566 371.528 70.2902 373.892C72.8255 376.709 75.4362 379.453 78.1226 382.125C85.1183 384.325 93.364 385.224 101.983 385.285C104.956 385.31 107.975 385.229 111.005 385.067C123.287 384.421 116.559 382.448 126.735 380.399C129.426 379.863 131.956 379.318 134.285 378.788C138.695 377.794 142.384 376.865 145.056 376.159C148.065 375.371 158.925 369.938 158.925 369.938L167.493 388.614L175.053 406.28L185.009 428.597C186.289 428.713 187.571 428.811 188.855 428.89C190.215 428.986 191.578 429.063 192.942 429.122C194.021 429.178 195.094 429.218 196.178 429.248L196.546 429.364L196.848 429.269L201.707 427.719L203.345 427.199L209.237 425.321C209.237 425.321 207.921 421.172 205.618 414.252C204.771 411.713 198.774 392.942 192.499 376.552C190.639 371.686 188.713 366.75 186.733 361.839C185.11 357.806 183.457 353.788 181.783 349.826C178.875 342.956 164.823 339.251 148.276 337.308C147.435 337.212 146.588 337.116 145.736 337.025C137.304 336.137 128.358 335.677 119.991 335.465C115.803 335.359 130.913 335.319 127.153 335.314C125.938 335.314 124.757 335.317 123.61 335.324H123.605C120.505 335.339 117.652 335.385 115.142 335.435C114.654 335.445 114.18 335.46 113.716 335.471H113.711C113.399 335.476 113.091 335.486 112.789 335.491C107.3 335.632 103.933 335.804 103.933 335.804L102.628 325.547L102.361 323.478L102.109 321.509V321.504L102.078 321.257L101.872 321.252L98.2429 321.181L67.7399 320.585L54.7476 320.034L53.7183 331.594Z" fill="#2F2E41"/>
<path d="M152.876 369.434C149.202 375.723 146.339 387.645 142.574 393.551C135.352 404.887 131.118 411.071 126.113 418.046C120.942 415.225 115.907 412.189 111.008 408.94C108.392 407.214 105.816 405.426 103.281 403.575L106.28 396.725L107.984 393.369L115.635 378.282L124.213 361.368L127.197 362.761L152.876 369.434Z" fill="#2F2E41"/>
<path d="M410.712 283.01C410.857 282.574 410.906 282.113 410.858 281.657C410.81 281.2 410.664 280.76 410.431 280.365C410.199 279.969 409.884 279.629 409.509 279.365C409.134 279.102 408.706 278.922 408.256 278.838C408.089 278.803 407.92 278.781 407.749 278.775L387.211 278.244C386.75 278.239 386.293 278.331 385.87 278.514C385.447 278.697 385.067 278.967 384.754 279.306C384.466 279.244 384.173 279.213 383.879 279.214C383.239 279.198 382.603 279.307 382.005 279.537C381.408 279.767 380.862 280.113 380.398 280.554C379.934 280.995 379.562 281.524 379.302 282.11C379.042 282.695 378.9 283.326 378.884 283.967C378.868 284.608 378.978 285.245 379.209 285.843C379.439 286.441 379.784 286.987 380.225 287.452C380.666 287.916 381.195 288.288 381.78 288.548C382.365 288.807 382.995 288.949 383.634 288.964C384.37 288.979 385.1 288.829 385.77 288.525L387.66 308.759C387.842 309.424 388.234 310.013 388.777 310.436C389.32 310.86 389.986 311.096 390.674 311.11L404.027 311.454C404.71 311.466 405.38 311.261 405.94 310.868C406.5 310.476 406.921 309.915 407.143 309.268L410.712 283.01ZM383.677 287.569C382.755 287.545 381.881 287.156 381.245 286.487C380.609 285.818 380.265 284.924 380.286 284C380.308 283.077 380.694 282.2 381.36 281.562C382.026 280.923 382.918 280.576 383.84 280.595C383.905 280.595 383.963 280.626 384.028 280.626C383.882 281.185 383.886 281.772 384.038 282.329L385.383 287.151C384.863 287.443 384.273 287.588 383.677 287.569Z" fill="#CCCCCC"/>
<path d="M408.256 278.838C407.819 281.344 402.899 283.105 396.984 282.799C391.544 282.548 387.096 280.635 386.281 278.368C386.583 278.279 386.896 278.237 387.211 278.244L407.75 278.775C407.92 278.781 408.09 278.803 408.256 278.838Z" fill="white"/>
<path d="M212.602 311.892C219.144 311.892 224.446 310.197 224.446 308.106C224.446 306.015 219.144 304.321 212.602 304.321C206.061 304.321 200.758 306.015 200.758 308.106C200.758 310.197 206.061 311.892 212.602 311.892Z" fill="#3F3D56"/>
<path d="M212.602 309.368C219.144 309.368 224.446 307.673 224.446 305.582C224.446 303.492 219.144 301.797 212.602 301.797C206.061 301.797 200.758 303.492 200.758 305.582C200.758 307.673 206.061 309.368 212.602 309.368Z" fill="#3F3D56"/>
<path d="M213.485 308.119L211.72 308.093L212.207 275.088C212.277 269.702 210.936 264.392 208.317 259.688C205.698 254.984 201.893 251.05 197.281 248.28L163.594 228.114L164.5 226.597L198.187 246.763C203.064 249.693 207.088 253.853 209.858 258.828C212.628 263.803 214.046 269.419 213.972 275.114L213.485 308.119Z" fill="#3F3D56"/>
<path d="M168.753 211.951C168.753 209.581 166.835 207.661 164.469 207.661C162.103 207.661 160.185 209.581 160.185 211.951V238.703C160.185 241.072 162.103 242.993 164.469 242.993C166.835 242.993 168.753 241.072 168.753 238.703V211.951Z" fill="#7B2CBF"/>
<path d="M161.47 250.364C158.086 250.359 154.839 249.021 152.433 246.637C150.027 244.254 148.654 241.018 148.611 237.629L148.466 224.074L150.231 224.055L150.376 237.61C150.398 239.683 151 241.707 152.112 243.454C153.225 245.201 154.804 246.602 156.67 247.496C158.537 248.391 160.616 248.744 162.673 248.515C164.729 248.287 166.681 247.486 168.306 246.204L180.317 236.728L181.409 238.117L169.398 247.593C167.142 249.384 164.349 250.36 161.47 250.364Z" fill="#3F3D56"/>
<path d="M151.112 235.17C154.035 235.17 156.405 229.407 156.405 222.298C156.405 215.19 154.035 209.427 151.112 209.427C148.19 209.427 145.82 215.19 145.82 222.298C145.82 229.407 148.19 235.17 151.112 235.17Z" fill="#3F3D56"/>
<path d="M113.795 291.581C113.337 288.693 113.029 285.529 112.828 282.217C112.354 274.641 112.399 266.287 112.344 258.646C112.32 255.173 112.046 251.38 111.689 247.859C111.377 244.652 110.309 241.564 108.571 238.852C106.833 236.139 104.476 233.879 101.694 232.259C99.8004 231.162 98.0936 229.769 96.6386 228.133C95.8523 227.255 95.7565 225.226 95.6557 223.081C95.5348 220.471 95.4088 217.766 94.0127 216.373L93.9522 216.312L93.8715 216.282C88.0098 214.328 78.106 215.595 75.1625 216.277L75.0365 216.307L74.9559 216.408C73.7412 218.018 73.8067 220.592 73.8723 223.081C73.9277 225.317 73.9831 227.432 72.9953 228.068C72.2292 228.562 71.4933 229.032 70.7826 229.486C62.0682 235.053 57.6934 237.85 54.4878 246.94C54.0601 248.241 53.8573 249.605 53.8881 250.973C53.8629 252.649 53.9737 254.118 53.374 255.244C52.5524 256.788 51.7208 259.958 50.9446 264.193C46.8772 286.447 44.463 338.194 54.4022 339.406C55.1783 339.502 53.5958 341.061 53.0514 341.844C52.2702 342.969 51.5998 343.939 51.9879 344.681C52.25 345.185 52.9355 345.423 54.135 345.423C58.6611 345.423 105.187 338.583 106.507 336.12C106.603 336.261 106.593 335.958 106.507 336.12C128.321 333.268 116.774 310.453 113.795 291.581Z" fill="#7B2CBF"/>
<path d="M166.303 313.869C165.369 312.899 164.235 312.145 162.979 311.662C161.724 311.179 160.377 310.977 159.035 311.071C157.693 311.165 156.388 311.552 155.212 312.206C154.036 312.859 153.017 313.763 152.228 314.854L120.925 305.385L125.778 321.693L154.76 328.185C156.677 329.392 158.97 329.853 161.204 329.48C163.438 329.107 165.458 327.926 166.88 326.161C168.303 324.397 169.03 322.171 168.924 319.905C168.817 317.64 167.885 315.492 166.303 313.869Z" fill="#FFB6B6"/>
<path d="M128.516 323.207L85.5329 315.307C85.3589 314.857 68.103 270.123 65.9709 260.075C64.6215 254.017 65.3816 247.679 68.125 242.113L68.2008 241.98L68.3418 241.919C71.2244 240.688 74.4397 240.478 77.4576 241.323C80.4755 242.168 83.1158 244.018 84.9431 246.567C93.7003 258.922 99.4702 273.147 101.797 288.118L103.111 296.636L123.594 302.598L128.516 323.207Z" fill="#7B2CBF"/>
<path d="M114.433 202.326C111.778 207.189 107.548 211 102.441 213.134C97.334 215.267 91.6535 215.595 86.3353 214.064C81.0171 212.532 76.3782 209.232 73.1827 204.708C69.9873 200.183 68.4257 194.704 68.7551 189.172C69.0846 183.64 71.2855 178.385 74.9953 174.273C78.7052 170.161 83.7028 167.437 89.1651 166.549C94.6274 165.662 100.229 166.664 105.047 169.39C109.864 172.116 113.611 176.404 115.671 181.548C115.782 181.827 115.882 182.107 115.983 182.397C117.147 185.64 117.611 189.093 117.344 192.528C117.076 195.964 116.084 199.303 114.433 202.326Z" fill="#FFB6B6"/>
<path d="M117.934 182.397C116.886 179.46 117.343 180.99 116.284 178.065C116.975 180.655 115.882 182.107 115.983 182.397H86.9849V165.515C95.4802 162.144 103.786 159.274 108.803 165.515C113.273 165.516 117.561 167.294 120.722 170.46C123.883 173.626 125.659 177.92 125.66 182.397L117.934 182.397Z" fill="#2F2E41"/>
<path d="M94.5505 228.819C94.5281 228.506 94.4947 228.182 94.4501 227.87C94.0605 225.576 93.4289 223.33 92.566 221.171C91.7298 218.815 90.8825 216.448 90.0352 214.092C91.1263 218.368 90.7936 222.884 89.0876 226.954C84.1933 223.136 86.546 217.388 80.8822 214.405C65.6822 206.399 60.4223 193.461 64.6741 173.59C66.1862 166.523 74.9937 159.457 90.3789 159.457C105.775 159.457 112.638 167.123 112.939 182.531C93.9865 186.997 98.1291 227.255 94.5505 228.819Z" fill="#2F2E41"/>
<path d="M66.2048 174.324C71.7617 174.324 76.2665 169.813 76.2665 164.248C76.2665 158.682 71.7617 154.171 66.2048 154.171C60.6478 154.171 56.1431 158.682 56.1431 164.248C56.1431 169.813 60.6478 174.324 66.2048 174.324Z" fill="#2F2E41"/>
<path d="M61.4979 161.319C59.782 163.32 57.0954 164.098 54.6718 165.139C50.3944 167.018 46.6394 169.914 43.7322 173.575C40.825 177.236 38.8534 181.552 37.9884 186.149C37.3184 189.893 37.406 193.769 36.3476 197.419C35.2955 201.069 32.6904 204.65 28.9516 205.284C26.4216 205.717 23.8853 204.738 21.5055 203.772C20.1966 203.246 18.8878 202.717 17.5789 202.186C18.9441 198.755 20.3073 195.324 21.6683 191.894C19.4809 195.131 16.9369 198.112 14.0844 200.781C9.39378 198.887 4.69898 196.993 0 195.099C11.5606 195.142 9.58791 183.904 12.1743 172.627C13.5959 166.431 25.7014 162.235 28.0749 156.34C29.3574 153.142 31.5278 150.379 34.3293 148.378C37.1307 146.378 40.4459 145.222 43.8825 145.049C47.319 144.877 50.7331 145.693 53.7206 147.403C56.7082 149.113 59.1441 151.644 60.7402 154.696C63.1137 155.643 63.1825 159.344 61.4979 161.319Z" fill="#2F2E41"/>
<path d="M106.552 159.838C107.503 160.156 108.289 160.839 108.737 161.737C109.185 162.635 109.259 163.675 108.941 164.627L100.042 191.335C99.8849 191.806 99.6365 192.242 99.3112 192.618C98.9858 192.993 98.5898 193.301 98.1457 193.523C97.7016 193.745 97.2182 193.877 96.723 193.913C96.2279 193.948 95.7306 193.885 95.2597 193.727C94.3087 193.41 93.5228 192.726 93.0747 191.828C92.6267 190.93 92.5532 189.89 92.8706 188.938L101.77 162.231C102.087 161.278 102.769 160.491 103.666 160.042C104.563 159.594 105.601 159.52 106.552 159.838Z" fill="white"/>
<path d="M94.4587 205.44C100.026 205.44 104.539 200.92 104.539 195.345C104.539 189.77 100.026 185.25 94.4587 185.25C88.8915 185.25 84.3784 189.77 84.3784 195.345C84.3784 200.92 88.8915 205.44 94.4587 205.44Z" fill="white"/>
<path d="M94.459 197.869C95.8508 197.869 96.9791 196.739 96.9791 195.345C96.9791 193.951 95.8508 192.821 94.459 192.821C93.0672 192.821 91.939 193.951 91.939 195.345C91.939 196.739 93.0672 197.869 94.459 197.869Z" fill="#7B2CBF"/>
<path d="M240.082 439.599C240.623 440.913 241.217 442.227 241.788 443.546L241.523 443.564C241.435 443.564 241.353 443.576 241.264 443.582C237.105 443.841 232.908 443.978 228.674 443.994C228.48 444 228.292 444 228.098 444C228.098 443.988 228.104 443.982 228.104 443.971C228.539 443.99 228.969 443.876 229.337 443.642C229.705 443.409 229.992 443.068 230.16 442.666C230.329 442.263 230.369 441.819 230.277 441.393C230.185 440.966 229.964 440.579 229.645 440.282C229.586 440.064 229.551 439.911 229.498 439.699C229.515 439.651 229.535 439.604 229.557 439.558C229.995 438.52 230.73 437.636 231.669 437.016C232.608 436.396 233.708 436.067 234.833 436.072C235.958 436.076 237.056 436.413 237.99 437.041C238.924 437.668 239.651 438.558 240.082 439.599Z" fill="#F2F2F2"/>
<path d="M278.888 420.356C278.882 420.403 278.876 420.444 278.87 420.492C278.124 420.793 277.399 421.144 276.699 421.54C276.293 421.764 275.899 422.006 275.517 422.259C275.033 422.583 274.659 423.045 274.443 423.585C274.226 424.125 274.178 424.718 274.304 425.286C274.43 425.854 274.724 426.371 275.149 426.769C275.573 427.166 276.107 427.426 276.681 427.515L276.74 427.526C276.782 427.532 276.817 427.538 276.858 427.544C274.636 432.916 270.81 437.468 265.903 440.577C265.668 440.624 265.439 440.665 265.203 440.706C264.015 440.924 262.832 441.125 261.644 441.307C257.514 441.979 253.343 442.521 249.13 442.934C249.974 438.661 250.4 434.315 250.401 429.96C250.404 427.521 250.268 425.083 249.995 422.66C249.772 420.674 249.466 418.695 249.066 416.738C248.866 415.749 248.642 414.761 248.395 413.775C247.076 408.534 245.149 403.466 242.653 398.674C240.627 394.78 238.225 391.094 235.481 387.668C232.209 385.882 229.564 383.132 227.904 379.791C227.299 378.591 226.873 377.308 226.639 375.985C227.003 376.038 227.38 376.067 227.751 376.091C227.862 376.096 227.986 376.102 228.104 376.108H228.145C228.55 376.127 228.953 376.028 229.304 375.823C229.655 375.618 229.938 375.315 230.121 374.952C230.304 374.589 230.378 374.181 230.334 373.776C230.291 373.372 230.131 372.989 229.874 372.673C229.716 372.479 229.557 372.279 229.398 372.084C229.157 371.784 228.904 371.483 228.662 371.183C228.635 371.155 228.61 371.125 228.586 371.094C228.309 370.747 228.027 370.405 227.751 370.063C228.256 369.272 228.939 368.61 229.745 368.131C232.534 366.493 236.381 367.624 238.399 370.152C240.417 372.679 240.8 376.226 240.099 379.378C239.409 382.066 238.267 384.616 236.722 386.92C236.875 387.114 237.028 387.297 237.181 387.491C239.742 390.788 241.997 394.312 243.918 398.02C244.077 398.315 244.23 398.609 244.377 398.91C243.885 394.392 244.472 389.822 246.089 385.576C247.724 381.623 250.795 378.288 253.496 374.871C256.743 370.764 263.403 372.555 263.974 377.764C263.98 377.811 263.985 377.864 263.991 377.911C263.591 378.141 263.197 378.383 262.815 378.636C262.331 378.959 261.957 379.42 261.74 379.96C261.523 380.5 261.474 381.093 261.599 381.661C261.724 382.229 262.018 382.746 262.442 383.144C262.866 383.542 263.4 383.802 263.974 383.891L264.032 383.903C263.56 388.698 261.899 393.298 259.198 397.286C256.498 401.273 252.845 404.521 248.571 406.734C248.33 406.858 248.101 406.982 247.865 407.094C248.604 409.174 249.239 411.289 249.766 413.433C250.025 414.435 250.248 415.442 250.454 416.456C251.03 419.258 251.431 422.094 251.654 424.946C251.927 428.537 251.911 432.145 251.607 435.734L251.625 435.61C252.4 431.619 254.526 428.017 257.643 425.411C262.279 421.599 268.821 420.197 273.822 417.133C274.353 416.792 274.97 416.609 275.601 416.607C276.232 416.606 276.851 416.785 277.383 417.124C277.916 417.463 278.34 417.947 278.607 418.52C278.874 419.093 278.971 419.73 278.888 420.356Z" fill="#78A245"/>
</g>
<defs>
<clipPath id="clip0_62_203">
<rect width="176" height="243" fill="white" transform="translate(214)"/>
</clipPath>
<clipPath id="clip1_62_203">
<rect width="428" height="425" fill="white" transform="translate(0 19)"/>
</clipPath>
</defs>
</svg>
